<?xml version="1.0" encoding="utf-8"?>
<!-- Generator: Adobe Illustrator 27.5.0, SVG Export Plug-In . SVG Version: 6.00 Build 0)  -->
<svg version="1.1" xmlns="http://www.w3.org/2000/svg" xmlns:xlink="http://www.w3.org/1999/xlink" x="0px" y="0px"
	 viewBox="0 0 3710 3710" style="enable-background:new 0 0 3710 3710;" xml:space="preserve">
<g id="Background">
	<g>
		<g>
			<rect style="fill:#FFFFFF;" width="3710" height="3710"/>
		</g>
	</g>
</g>
<g id="Illustration">
	<g>
		<linearGradient id="SVGID_1_" gradientUnits="userSpaceOnUse" x1="3586.8867" y1="4037.4114" x2="1129.0769" y2="984.9658">
			<stop  offset="0" style="stop-color:#DAE3FE"/>
			<stop  offset="1" style="stop-color:#E9EFFD"/>
		</linearGradient>
		<path style="fill:url(#SVGID_1_);" d="M2916.833,2829.403c-56.79,59.202-110.523,97.381-152.978,127.545
			c-499.039,354.573-1089.534,251.217-1215.031,225.976c-185.319-37.272-543.538-109.319-802.524-410.909
			c-391.824-456.281-330.811-1175.14-26.886-1649.669c55.593-86.799,349.249-568.556,946.104-645.814
			c361.211-46.756,782.266,47.545,1087.182,300.513C3392.749,1308.046,3347.184,2380.762,2916.833,2829.403z"/>
		<g>
			<g>
				<path style="fill:#BDD0FB;" d="M713.694,1982.971c112.482-189.147,546.049-945.385,620.038-1483.826
					c5.284-38.448-37.666-57.667-75.063-33.364C1022.315,619.378,385,1126.799,672.704,1986.145
					C678.059,2002.142,703.481,2000.146,713.694,1982.971z"/>
				<path style="opacity:0.53;fill:#FFFFFF;" d="M686.482,1970.84c1.799,2.12,4.348,3.622,7.313,4.069
					c6.509,0.973,12.575-3.511,13.545-10.017c117.891-787.174,455.83-1228.723,459.232-1233.093
					c4.038-5.193,3.074-12.659-2.08-16.718c-5.191-4.04-12.672-3.113-16.719,2.079c-0.862,1.105-87.395,113.116-187.227,321.541
					c-91.983,192.044-214.664,508.005-276.765,922.663C683.25,1964.901,684.335,1968.31,686.482,1970.84z"/>
			</g>
			<g>
				<path style="fill:#91B3FA;" d="M674.321,1872.327c11.555,17.672,37.404,17.8,49.361,0.398
					c65.979-96.023,227.976-384.384,114.377-770.204c-95.929-325.809-116.984-511.591-120.698-596.592
					c-0.785-17.974-24.06-24.499-34.103-9.571C572.458,661.051,255.601,1231.965,674.321,1872.327z"/>
				<path style="opacity:0.53;fill:#FFFFFF;" d="M695.59,1864.712c1.714,2.488,4.4,4.299,7.617,4.825
					c6.261,1.02,12.167-3.233,13.187-9.495c0.83-5.103,81.729-515.332-31.35-975.005c-1.503-6.175-7.744-9.924-13.902-8.41
					c-6.159,1.512-9.928,7.739-8.409,13.897c111.969,455.175,31.803,960.772,30.979,965.825
					C693.215,1859.396,693.969,1862.358,695.59,1864.712z"/>
			</g>
		</g>
		<g>
			<g>
				<g>
					
						<linearGradient id="SVGID_00000107573171361526325320000000342002466747495357_" gradientUnits="userSpaceOnUse" x1="1886.631" y1="2974.9531" x2="2236.2192" y2="1448.8643">
						<stop  offset="0" style="stop-color:#09005D"/>
						<stop  offset="1" style="stop-color:#1A0F91"/>
					</linearGradient>
					<polygon style="fill:url(#SVGID_00000107573171361526325320000000342002466747495357_);" points="1642.23,2426.724 
						1583.764,2951.084 2262.085,2951.084 2173.733,2426.724 					"/>
					
						<linearGradient id="SVGID_00000114073556108816858010000008060199044975086266_" gradientUnits="userSpaceOnUse" x1="1950.0555" y1="617.2149" x2="1842.4907" y2="1854.2205">
						<stop  offset="0" style="stop-color:#09005D"/>
						<stop  offset="1" style="stop-color:#1A0F91"/>
					</linearGradient>
					<path style="fill:url(#SVGID_00000114073556108816858010000008060199044975086266_);" d="M461.893,1097.335v1235.76
						c0,101.658,81.009,184.789,182.632,187.41c451.36,11.638,2029.998,39.86,2459.663,33.527
						c73.848-1.088,133.672-60.185,135.802-134.01c8.285-287.084,21.741-977.424-28.055-1297.923
						c-10.487-67.493-67.457-117.964-135.726-120.147c-378.183-12.098-2051.643-50.514-2481.106-40.869
						C521.036,962.746,461.893,1023.248,461.893,1097.335z"/>
					<path style="fill:#91B3FA;" d="M539.434,1091.319v1174.057c0,59.354,47.644,107.716,106.991,108.603l2395.95,29.601
						c58.838,0.879,107.067-46.458,107.286-105.302l4.008-1163.568c0.157-42.075-33.364-76.549-75.427-77.573l-2453.008-49.557
						C578.189,1006.436,539.434,1044.261,539.434,1091.319z"/>
					<path style="fill:#91B3FA;" d="M3167.7,2452.227c-0.023,0-0.044,0-0.067,0l-2628.264-44.781
						c-2.126-0.038-3.821-1.792-3.785-3.917c0.035-2.126,1.768-3.802,3.915-3.787l2628.264,44.781
						c2.126,0.038,3.821,1.792,3.784,3.917C3171.514,2450.543,3169.795,2452.227,3167.7,2452.227z"/>
					
						<linearGradient id="SVGID_00000114753560026749681210000010991878752915715217_" gradientUnits="userSpaceOnUse" x1="2319.3467" y1="2053.0752" x2="2151.2747" y2="2449.7244">
						<stop  offset="0" style="stop-color:#09005D"/>
						<stop  offset="1" style="stop-color:#1A0F91"/>
					</linearGradient>
					<path style="fill:url(#SVGID_00000114753560026749681210000010991878752915715217_);" d="M2408.195,3058.368h-992.77
						c-26.97,0-47.224-19.2-42.01-39.824l12.739-50.38c3.83-15.151,20.499-26.274,40.296-26.892l957.066-29.865
						c20.683-0.645,38.997,10.334,43.503,26.08l22.965,80.244C2455.952,3038.579,2435.601,3058.368,2408.195,3058.368z"/>
				</g>
			</g>
			<g>
				<defs>
					<path id="SVGID_00000042709491462205562720000004465557886682679182_" d="M525.562,1088.921v1174.323
						c0,59.367,47.839,107.74,107.429,108.628l2405.752,29.608c59.078,0.88,107.505-46.468,107.725-105.326l4.025-1163.831
						c0.158-42.084-33.5-76.567-75.735-77.591l-2463.044-49.568C564.475,1004.019,525.562,1041.852,525.562,1088.921z"/>
				</defs>
				<clipPath id="SVGID_00000157280506851408498210000002143590029192004023_">
					<use xlink:href="#SVGID_00000042709491462205562720000004465557886682679182_"  style="overflow:visible;"/>
				</clipPath>
				<g style="clip-path:url(#SVGID_00000157280506851408498210000002143590029192004023_);">
					<path style="opacity:0.39;fill:#FFFFFF;" d="M1477.399,1669.229c-145.588-40.311-314.595-98.626-396.128-35.943
						c-81.533,62.683-128.198,134.3-244.686,111.929c-116.488-22.373-115.964-129.935-209.73-89.625
						c-47.714,20.559-75.153,4.166-90.621-16.864l-14.343-459.765c5.767-105.143-49.008-196.224,232.112-183.998l586.109,31.647
						c12.759,13.033,9.874,14.97,16.428,34.065h10.224c0,0,174.775,45.347,151.443,175.216
						c-23.333,129.934-112.206,115.823,2.097,214.317C1634.696,1548.768,1623.073,1709.539,1477.399,1669.229z"/>
					<path style="opacity:0.39;fill:#FFFFFF;" d="M1889.732,2090.007c-29.1,116.497-174.775,76.186-308.741,161.243
						c-134.052,85.122,0,174.679-209.73,174.679s-378.126-16.595-419.461,62.75c-41.422,79.346-355.405-17.937-314.595-129.934
						c25.43-69.94-34.891-192.32-98.246-264.476v-247.052c8.302,2.823,42.668-2.636,51.582,0.925c0,0,128.197,58.249,285.495,17.938
						c128.197-32.854,198.544-75.179,283.136-130.472c44.131-28.89,105.04-37.557,159.569-22.642
						c139.559,38.162,200.642,120.394,318.178,135.176C1779.011,1866.08,1918.831,1973.575,1889.732,2090.007z"/>
					<path style="opacity:0.39;fill:#FFFFFF;" d="M2245.676,1327.041c0,0-307.943,118.376-246.354,224.913
						c61.588,106.538-38.938,162.499,119.105,175.95c158.043,13.451,409.53,72.134,491.649-30.206
						C2692.194,1595.358,2517.692,1248.124,2245.676,1327.041z"/>
					<path style="opacity:0.39;fill:#FFFFFF;" d="M2673.225,2411.561c0.009,0.2,0.017,0.401,0.025,0.602
						c1.053,26.538-33.025,45.76-65.813,37.427c-150.329-38.207-193.319,63.122-391.773,69.95
						c-221.353,7.619-151.443-84.034-314.595-168.012c-163.066-84.034-87.388-152.774,104.865-213.895
						c136.936-43.479,279.727-48.291,350.598-47.431c29.537,0.343,59.424-2.235,87.737-7.562c0.895-0.167,1.788-0.333,2.679-0.495
						c108.645-19.872,213.59,42.212,217.38,128.021L2673.225,2411.561z"/>
					<path style="opacity:0.39;fill:#FFFFFF;" d="M2535.174,1929.984c1.302,4.114,3.131,8.089,5.536,11.851
						c14.924,23.34,45.064,30.628,71.256,40.1c44.385,16.051,88.272,50.009,91.797,96.704c1.503,19.916-4.608,39.706-4.276,59.675
						c1.133,67.995,71.288,111.465,132.66,141.88c78.869,39.085,157.738,78.17,236.607,117.255
						c51.559,25.551,105.008,49.524,108.398-19.912c1.748-35.798,1.092-71.883,1.636-107.72c1.271-83.71,2.543-167.42,3.814-251.13
						c4.399-289.641,8.797-579.282,13.196-868.923c-2.524-84.902-77.63-115.417-123.158-113.615
						c-76.714-2.04-153.428-4.08-230.143-6.119c-64.201-1.707-436.571-54.298-403.439,64.247
						c4.103,14.679,13.751,27.117,23.185,39.142c58.867,75.034,117.853,150.206,183.816,219.199
						c28.266,29.565,58.091,58.353,79.085,93.367c17.809,29.703,28.663,62.924,38.56,96.055
						c12.512,41.887,23.825,84.989,21.713,128.623c-2.112,43.634-19.542,88.48-54.942,114.509
						c-25.265,18.576-56.879,25.949-87.335,33.76c-30.455,7.811-61.93,17.16-84.898,38.465
						C2538.556,1875.659,2527.365,1905.303,2535.174,1929.984z"/>
				</g>
				<g style="clip-path:url(#SVGID_00000157280506851408498210000002143590029192004023_);">
					<defs>
						<path id="SVGID_00000100350785318899283460000007761619797686506667_" d="M3129.007,2331.633
							c0.874,23.448,3.945,149.244-2.61,170.339c-23.682,76.524-83.655,42.575-165.537,44.456H709.719
							c-145.474,17.638-163.167-45.768-156.963-159.041l-13.683-277.697l-0.113-262.474l-4.948-193.731l-14.396-464.91
							c5.767-105.143,69.723-184.889,171.092-181.664l665.001,12.978l1574.636,49.917c98.137,3.091,205.576,7.373,215.399,169.695
							l-8.203,706.257L3129.007,2331.633z"/>
					</defs>
					<clipPath id="SVGID_00000152984938521987530330000015363703334098823564_">
						<use xlink:href="#SVGID_00000100350785318899283460000007761619797686506667_"  style="overflow:visible;"/>
					</clipPath>
					<g style="clip-path:url(#SVGID_00000152984938521987530330000015363703334098823564_);">
						<g>
							<rect x="644.043" y="1000.66" style="fill:#FFFFFF;" width="3.361" height="1574.01"/>
							<rect x="1087.572" y="1000.66" style="fill:#FFFFFF;" width="3.361" height="1574.01"/>
							<rect x="1524.003" y="1000.66" style="fill:#FFFFFF;" width="3.361" height="1574.01"/>
							<rect x="1953.338" y="1000.66" style="fill:#FFFFFF;" width="3.362" height="1574.01"/>
							<rect x="2396.866" y="1000.66" style="fill:#FFFFFF;" width="3.362" height="1574.01"/>
							<rect x="2833.301" y="1000.66" style="fill:#FFFFFF;" width="3.361" height="1574.01"/>
						</g>
						<g>
							<rect x="-126.017" y="948.516" style="fill:#FFFFFF;" width="3416.945" height="3.361"/>
							<rect x="-126.017" y="1286.776" style="fill:#FFFFFF;" width="3416.945" height="3.361"/>
							<rect x="-126.017" y="1619.581" style="fill:#FFFFFF;" width="3416.945" height="3.361"/>
							<rect x="-104.726" y="1955.117" style="fill:#FFFFFF;" width="3413.393" height="3.361"/>
							<rect x="-104.726" y="2293.377" style="fill:#FFFFFF;" width="3413.393" height="3.362"/>
							<rect x="-104.726" y="2626.185" style="fill:#FFFFFF;" width="3413.393" height="3.361"/>
						</g>
					</g>
				</g>
			</g>
		</g>
		<g>
			<g>
				<g style="opacity:0.3;">
					<path style="fill:#91B3FA;" d="M1316.598,2845.35c-4.673-0.811-7.803-5.258-6.991-9.929c1.576-9.077,2.782-18.357,3.583-27.584
						c0.405-4.668,4.476-8.138,9.13-7.823c0.055,0.004,0.11,0.007,0.167,0.011c4.724,0.41,8.22,4.573,7.81,9.299
						c-0.844,9.712-2.112,19.482-3.773,29.037c-0.758,4.369-4.699,7.39-9.028,7.097
						C1317.198,2845.438,1316.898,2845.404,1316.598,2845.35z M1314.009,2762.66c-0.463-9.245-1.327-18.558-2.568-27.688
						c-0.638-4.695,2.651-9.024,7.35-9.664c4.718-0.625,9.026,2.654,9.664,7.354c1.306,9.605,2.216,19.408,2.705,29.136
						c0.237,4.736-3.411,8.768-8.146,9.005c-0.344,0.017-0.685,0.014-1.02-0.009
						C1317.714,2770.504,1314.23,2767.052,1314.009,2762.66z M1302.259,2690.755c-2.503-8.886-5.423-17.77-8.682-26.411
						c-1.673-4.436,0.568-9.39,5.005-11.063c4.434-1.667,9.387,0.568,11.063,5.005c3.431,9.1,6.507,18.458,9.142,27.813
						c1.286,4.564-1.373,9.306-5.936,10.594c-0.973,0.274-1.954,0.369-2.908,0.304
						C1306.422,2696.758,1303.27,2694.346,1302.259,2690.755z M1274.721,2623.284c-4.431-8.112-9.267-16.124-14.37-23.818
						c-2.62-3.952-1.542-9.281,2.409-11.901c3.954-2.617,9.279-1.537,11.901,2.409c5.373,8.102,10.463,16.538,15.129,25.073
						c2.273,4.161,0.743,9.378-3.417,11.652c-1.489,0.813-3.112,1.141-4.689,1.034
						C1278.855,2627.54,1276.183,2625.954,1274.721,2623.284z M1232.839,2563.629c-6.107-6.908-12.597-13.654-19.291-20.043
						c-3.429-3.277-3.553-8.711-0.279-12.141c3.276-3.432,8.712-3.555,12.139-0.278c7.041,6.723,13.87,13.82,20.297,21.089
						c3.141,3.551,2.808,8.977-0.746,12.118c-1.79,1.583-4.056,2.284-6.266,2.134
						C1236.516,2566.362,1234.397,2565.392,1232.839,2563.629z M1178.801,2514.729c-7.494-5.395-15.313-10.533-23.241-15.275
						c-4.069-2.434-5.396-7.707-2.963-11.774c2.434-4.071,7.704-5.399,11.776-2.965c8.344,4.988,16.574,10.4,24.461,16.076
						c3.848,2.771,4.722,8.135,1.952,11.985c-1.8,2.5-4.694,3.743-7.557,3.549
						C1181.685,2516.221,1180.151,2515.701,1178.801,2514.729z M863.243,2469.129c-1.666-4.439,0.582-9.39,5.023-11.056
						c9.095-3.411,18.464-6.472,27.842-9.094c4.568-1.277,9.305,1.39,10.581,5.957c1.278,4.564-1.389,9.302-5.955,10.579
						c-8.905,2.49-17.8,5.397-26.436,8.638c-1.185,0.444-2.404,0.61-3.591,0.53C867.451,2474.463,864.464,2472.385,863.243,2469.129
						z M1115.307,2479.044c-8.502-3.591-17.263-6.856-26.042-9.703c-4.511-1.465-6.982-6.308-5.518-10.818
						c1.464-4.513,6.302-6.959,10.818-5.517c9.245,2.999,18.471,6.437,27.424,10.22c4.368,1.845,6.414,6.881,4.568,11.251
						c-1.463,3.464-4.935,5.468-8.489,5.228C1117.142,2479.643,1116.211,2479.425,1115.307,2479.044z M935.329,2449.046
						c-0.63-4.698,2.671-9.02,7.371-9.65c9.627-1.288,19.437-2.177,29.157-2.648c4.74-0.25,8.76,3.427,8.991,8.162
						c0.229,4.735-3.425,8.76-8.162,8.991c-9.238,0.447-18.561,1.292-27.71,2.518c-0.583,0.078-1.161,0.093-1.727,0.054
						C939.262,2456.203,935.88,2453.161,935.329,2449.046z M1045.443,2458.449c-9.086-1.597-18.359-2.823-27.567-3.641
						c-4.725-0.417-8.212-4.586-7.793-9.311c0.415-4.661,4.481-8.121,9.129-7.806c0.06,0.004,0.122,0.008,0.182,0.016
						c9.694,0.858,19.458,2.147,29.02,3.827c4.67,0.824,7.791,5.274,6.971,9.945c-0.766,4.362-4.703,7.373-9.026,7.08
						C1046.056,2458.538,1045.75,2458.5,1045.443,2458.449z"/>
					<path style="fill:#91B3FA;" d="M816.406,2500.882c1.686,0.114,3.425-0.265,4.986-1.202c3.796-2.277,7.704-4.51,11.614-6.646
						c4.162-2.27,5.697-7.487,3.425-11.648c-2.27-4.164-7.488-5.703-11.65-3.424c-4.113,2.243-8.222,4.594-12.218,6.989
						c-4.066,2.438-5.388,7.713-2.95,11.778C811.116,2499.236,813.696,2500.698,816.406,2500.882z"/>
				</g>
				<g style="opacity:0.3;">
					<path style="fill:#91B3FA;" d="M662.282,2712.465c4.134,0.28,7.976-2.472,8.938-6.639c0.993-4.313,2.093-8.679,3.271-12.972
						c1.254-4.574-1.436-9.298-6.009-10.552c-4.592-1.259-9.298,1.438-10.552,6.009c-1.239,4.521-2.399,9.118-3.446,13.66
						c-1.064,4.621,1.819,9.229,6.44,10.295C661.378,2712.37,661.832,2712.435,662.282,2712.465z"/>
					<path style="fill:#91B3FA;" d="M948.334,3119.855c-4.71-0.551-8.081-4.816-7.529-9.529c0.552-4.709,4.812-8.071,9.527-7.527
						c8.966,1.051,18.117,1.734,27.301,2.046c4.717,0.144,8.45,4.135,8.289,8.874c-0.161,4.739-4.134,8.45-8.873,8.291
						c-3.979-0.135-7.941-0.336-11.882-0.603C959.544,3121.027,953.88,3120.506,948.334,3119.855z M1014.402,3112.753
						c-0.481-4.715,2.952-8.93,7.669-9.411c9.057-0.927,18.171-2.242,27.092-3.918c4.652-0.888,9.148,2.192,10.024,6.854
						c0.875,4.658-2.194,9.146-6.854,10.021c-9.392,1.764-18.987,3.152-28.518,4.124c-0.494,0.051-0.984,0.058-1.462,0.026
						C1018.256,3120.171,1014.833,3116.978,1014.402,3112.753z M902.347,3111.243c-9.247-2.397-18.518-5.223-27.556-8.403
						c-4.473-1.574-6.824-6.476-5.251-10.951c1.574-4.472,6.473-6.816,10.949-5.249c8.582,3.021,17.385,5.705,26.165,7.979
						c4.59,1.192,7.347,5.876,6.157,10.468c-1.053,4.06-4.843,6.684-8.881,6.411
						C903.406,3111.462,902.875,3111.379,902.347,3111.243z M1086.764,3099.109c-1.506-4.495,0.918-9.364,5.415-10.867
						c8.619-2.886,17.217-6.177,25.556-9.777c4.356-1.883,9.406,0.122,11.286,4.479c1.88,4.353-0.124,9.404-4.477,11.284
						c-8.782,3.792-17.837,7.257-26.912,10.296c-1.097,0.366-2.215,0.502-3.303,0.429
						C1090.961,3104.725,1087.902,3102.507,1086.764,3099.109z M831.858,3084.329c-8.488-4.37-16.907-9.165-25.025-14.253
						c-4.018-2.517-5.234-7.813-2.719-11.831c2.518-4.021,7.817-5.236,11.835-2.719c7.712,4.831,15.708,9.386,23.769,13.535
						c4.216,2.171,5.874,7.35,3.703,11.565c-1.618,3.141-4.904,4.862-8.217,4.637
						C834.071,3085.188,832.932,3084.883,831.858,3084.329z M768.981,3042.609c-7.345-6.134-14.516-12.65-21.315-19.366
						c-3.373-3.334-3.407-8.769-0.074-12.144c3.338-3.378,8.773-3.41,12.142-0.073c6.461,6.381,13.276,12.573,20.255,18.404
						c3.64,3.04,4.125,8.454,1.086,12.094c-1.833,2.192-4.527,3.24-7.176,3.061C772.151,3044.467,770.426,3043.816,768.981,3042.609
						z M716.688,2988.176c-5.838-7.592-11.419-15.517-16.59-23.548c-2.567-3.989-1.414-9.3,2.572-11.867
						c3.992-2.57,9.301-1.414,11.867,2.572c4.912,7.634,10.216,15.159,15.765,22.376c2.89,3.759,2.186,9.15-1.573,12.039
						c-1.727,1.328-3.796,1.898-5.81,1.761C720.545,2991.348,718.251,2990.208,716.688,2988.176z M677.515,2923.632
						c-4.036-8.684-7.748-17.642-11.03-26.624c-1.628-4.453,0.662-9.385,5.117-11.012c4.446-1.625,9.382,0.665,11.01,5.118
						c3.117,8.528,6.641,17.032,10.476,25.282c1.998,4.3,0.133,9.405-4.167,11.403c-1.359,0.631-2.796,0.876-4.191,0.782
						C681.706,2928.376,678.884,2926.575,677.515,2923.632z M653.469,2852.021c-2.018-9.337-3.663-18.885-4.889-28.38
						c-0.608-4.703,2.713-9.01,7.416-9.616c4.688-0.604,9.007,2.711,9.615,7.414c1.164,9.02,2.727,18.088,4.643,26.958
						c1.002,4.633-1.944,9.203-6.578,10.204c-0.807,0.174-1.612,0.231-2.397,0.178
						C657.557,2858.526,654.296,2855.848,653.469,2852.021z M645.743,2776.956c0.046-7.039,0.31-14.165,0.785-21.175
						c0.172-2.54,0.372-5.067,0.598-7.59c0.424-4.721,4.544-8.304,9.317-7.783c4.723,0.42,8.209,4.593,7.786,9.317
						c-0.214,2.396-0.406,4.803-0.569,7.216c-0.451,6.666-0.703,13.436-0.747,20.129c-0.03,4.741-3.901,8.56-8.642,8.528
						c-0.178-0.002-0.356-0.007-0.532-0.019C649.248,2785.274,645.712,2781.519,645.743,2776.956z"/>
					<path style="fill:#91B3FA;" d="M1161.298,3073.877c1.703,0.115,3.456-0.274,5.024-1.223c3.975-2.41,7.974-4.949,11.886-7.549
						c3.951-2.624,5.026-7.953,2.402-11.902c-2.625-3.949-7.949-5.029-11.902-2.402c-3.717,2.468-7.516,4.88-11.289,7.169
						c-4.054,2.455-5.349,7.736-2.891,11.792C1156.037,3072.247,1158.604,3073.694,1161.298,3073.877z"/>
				</g>
				<g>
					<path style="fill:#91B3FA;" d="M1196.484,2930.95c1.169-1.251,1.417-3.105,0.616-4.618l-22.844-43.17
						c11.372-19.772,19.673-41.499,24.261-64.519l45.587-17.442c1.599-0.612,2.633-2.171,2.576-3.882l-1.955-58.551
						c-0.056-1.711-1.193-3.198-2.829-3.701l-46.649-14.364c-6.113-22.662-15.844-43.789-28.509-62.758l19.914-44.596
						c0.697-1.563,0.327-3.397-0.923-4.567l-42.784-40.021c-1.25-1.169-3.105-1.417-4.618-0.616l-43.169,22.844
						c-19.772-11.373-41.499-19.674-64.519-24.261l-17.442-45.587c-0.612-1.599-2.17-2.634-3.882-2.576l-58.552,1.954
						c-1.711,0.058-3.197,1.194-3.701,2.83l-14.363,46.649c-22.663,6.113-43.789,15.844-62.758,28.51l-44.596-19.915
						c-1.563-0.698-3.397-0.328-4.567,0.923l-40.021,42.784c-1.169,1.25-1.416,3.105-0.617,4.617l22.845,43.17
						c-11.373,19.771-19.673,41.499-24.261,64.519l-45.587,17.442c-1.599,0.611-2.634,2.17-2.577,3.881l1.955,58.552
						c0.057,1.711,1.194,3.198,2.83,3.701l46.649,14.364c6.113,22.663,15.844,43.789,28.51,62.758l-19.914,44.596
						c-0.699,1.563-0.328,3.396,0.923,4.567l42.784,40.02c1.25,1.169,3.105,1.417,4.618,0.616l43.17-22.844
						c19.772,11.373,41.499,19.673,64.519,24.262l17.442,45.587c0.612,1.598,2.17,2.633,3.882,2.576l58.552-1.955
						c1.711-0.057,3.198-1.193,3.701-2.83l14.363-46.648c22.663-6.113,43.788-15.845,62.758-28.51l44.597,19.914
						c1.563,0.698,3.397,0.327,4.567-0.923L1196.484,2930.95z"/>
					<g>
						<path style="fill:#BDD0FB;" d="M976.12,2834.17c-31.73-6.894-51.937-38.314-45.044-70.047
							c3.338-15.372,12.464-28.523,25.694-37.029c13.227-8.507,28.979-11.357,44.351-8.014c31.73,6.894,51.937,38.314,45.045,70.047
							c-6.272,28.868-32.844,48.197-61.484,46.258C981.843,2835.193,978.981,2834.791,976.12,2834.17z M964.2,2738.649
							c-10.144,6.524-17.14,16.605-19.701,28.393c-5.284,24.326,10.209,48.421,34.537,53.705
							c24.334,5.295,48.421-10.209,53.707-34.538c5.284-24.326-10.209-48.421-34.537-53.706c-2.206-0.479-4.419-0.79-6.631-0.94
							C981.97,2730.914,972.445,2733.348,964.2,2738.649z"/>
					</g>
					<path style="fill:#BDD0FB;" d="M977.737,2920.164c4.919,0.333,9.883,0.42,14.878,0.254l0,0c1.572-0.052,3.144-0.13,4.714-0.232
						c7.741-0.508,15.429-1.631,22.946-3.351c0.102-0.023,0.205-0.047,0.307-0.07c0.29-0.068,0.581-0.136,0.871-0.207
						c0.565-0.133,1.129-0.273,1.692-0.413c1.481-0.37,2.493-1.65,2.593-3.095c0.024-0.351-0.007-0.713-0.097-1.072
						c-0.461-1.84-2.328-2.951-4.166-2.494c-9.467,2.375-19.253,3.743-29.087,4.068c-48.848,1.639-92.69-22.466-118.463-60.072
						c-14.338-20.915-23.084-46.009-23.99-73.177c-0.16-4.764-0.078-9.501,0.241-14.193c2.141-31.574,14.969-61.205,36.879-84.628
						c25.167-26.906,59.307-42.402,96.127-43.631c76.044-2.531,139.916,57.241,142.453,133.249
						c0.157,4.687,0.075,9.364-0.241,14.011c-1.367,20.141-7.125,39.759-16.931,57.426c-0.253,0.457-0.392,0.945-0.423,1.434
						c-0.087,1.285,0.557,2.569,1.76,3.235c1.662,0.916,3.75,0.328,4.67-1.338c10.295-18.548,16.343-39.145,17.777-60.289
						c0.332-4.878,0.417-9.787,0.254-14.706c-2.663-79.802-69.774-142.549-149.547-139.888
						c-38.656,1.29-74.493,17.558-100.914,45.804c-23.003,24.589-36.469,55.696-38.718,88.843
						c-0.333,4.926-0.419,9.898-0.254,14.898c1.291,38.658,17.557,74.497,45.802,100.917
						C913.466,2904.455,944.583,2917.919,977.737,2920.164z"/>
				</g>
			</g>
			<g>
				<g style="opacity:0.3;">
					<path style="fill:#91B3FA;" d="M1594.545,3090.993c2.289,0.155,4.498-1.196,5.331-3.459c1.557-4.224,3.008-8.553,4.31-12.866
						c0.846-2.803-0.739-5.759-3.544-6.609c-2.804-0.859-5.762,0.742-6.609,3.544c-1.241,4.11-2.623,8.236-4.108,12.268
						c-1.013,2.745,0.395,5.793,3.142,6.81C1593.555,3090.859,1594.051,3090.96,1594.545,3090.993z"/>
					<path style="fill:#91B3FA;" d="M1604.538,3051.521c-2.886-0.496-4.826-3.234-4.332-6.122
						c1.243-7.286,2.128-14.721,2.627-22.095c0.105-1.555,0.193-3.117,0.265-4.685c0.138-2.923,2.619-5.185,5.545-5.049
						c2.761,0.239,5.185,2.619,5.051,5.548c-0.078,1.64-0.169,3.274-0.28,4.902c-0.523,7.729-1.451,15.525-2.757,23.166
						c-0.46,2.704-2.897,4.579-5.579,4.398C1604.9,3051.571,1604.72,3051.549,1604.538,3051.521z M1602.712,2991.69
						c-0.674-8.937-1.907-17.912-3.668-26.673c-0.576-2.873,1.281-5.664,4.154-6.243c2.857-0.57,5.667,1.281,6.244,4.154
						c1.846,9.182,3.14,18.592,3.845,27.963c0.22,2.921-1.969,5.467-4.891,5.69c-0.255,0.019-0.512,0.017-0.763,0
						C1605.045,2996.406,1602.913,2994.352,1602.712,2991.69z M1592.101,2938.994c-2.838-8.486-6.241-16.882-10.114-24.961
						c-1.264-2.639-0.15-5.808,2.49-7.072c2.65-1.268,5.808-0.157,7.075,2.488c4.062,8.47,7.628,17.281,10.608,26.177
						c0.928,2.777-0.568,5.785-3.345,6.713c-0.677,0.224-1.368,0.307-2.04,0.262
						C1594.695,2942.461,1592.805,2941.092,1592.101,2938.994z M1568.866,2890.514c-4.841-7.542-10.196-14.855-15.91-21.72
						c-1.874-2.255-1.568-5.598,0.685-7.469c2.247-1.867,5.592-1.568,7.467,0.682c5.995,7.206,11.606,14.868,16.685,22.779
						c1.582,2.464,0.864,5.747-1.599,7.33c-0.995,0.634-2.121,0.9-3.217,0.826
						C1571.357,2892.832,1569.81,2891.985,1568.866,2890.514z M1534.5,2849.177c-6.527-6.136-13.493-11.923-20.708-17.207
						c-2.362-1.727-2.874-5.047-1.144-7.411s5.048-2.882,7.412-1.144c7.562,5.536,14.864,11.605,21.706,18.032
						c2.132,2.008,2.237,5.363,0.233,7.495c-1.133,1.205-2.697,1.764-4.226,1.66
						C1536.592,2850.522,1535.43,2850.049,1534.5,2849.177z M1491.141,2817.434c-7.815-4.359-15.974-8.27-24.258-11.623
						c-2.713-1.097-4.024-4.191-2.925-6.904c1.1-2.713,4.181-4.02,6.907-2.927c8.685,3.515,17.246,7.619,25.444,12.192
						c2.555,1.429,3.474,4.657,2.048,7.213c-1.034,1.85-3.011,2.843-4.993,2.709
						C1492.607,2818.042,1491.848,2817.83,1491.141,2817.434z M1441.356,2797.268c-8.619-2.301-17.498-4.091-26.392-5.316
						c-2.9-0.404-4.927-3.079-4.526-5.98c0.398-2.9,3.066-4.884,5.979-4.531c9.323,1.291,18.633,3.166,27.672,5.579
						c2.83,0.757,4.512,3.664,3.757,6.493c-0.664,2.488-2.997,4.09-5.476,3.922
						C1442.034,2797.412,1441.694,2797.358,1441.356,2797.268z M1355.362,2786.485c-0.317-2.912,1.786-5.526,4.698-5.843
						c8.06-0.877,16.307-1.325,24.489-1.338c1.244-0.009,2.481,0.002,3.72,0.019c2.914-0.042,5.268,2.453,5.218,5.388
						c-0.045,2.929-2.456,5.263-5.386,5.22c-1.161-0.021-2.326-0.027-3.512-0.019c-7.831,0.01-15.698,0.438-23.384,1.272
						c-0.317,0.035-0.631,0.04-0.936,0.02C1357.75,2791.032,1355.643,2789.078,1355.362,2786.485z"/>
				</g>
				<g style="opacity:0.3;">
					<path style="fill:#91B3FA;" d="M1366.26,3236.619c-9.212-0.743-18.458-2.059-27.485-3.9c-2.867-0.588-4.72-3.387-4.134-6.259
						c0.586-2.873,3.403-4.69,6.259-4.134c8.606,1.76,17.426,3.012,26.215,3.721c2.919,0.234,5.095,2.795,4.858,5.711
						c-0.235,2.896-2.753,5.061-5.642,4.866C1366.309,3236.623,1366.283,3236.621,1366.26,3236.619z M1388.524,3232.095
						c-0.116-2.925,2.164-5.392,5.089-5.505c8.803-0.349,17.674-1.233,26.367-2.632c2.875-0.454,5.613,1.501,6.076,4.398
						c0.466,2.892-1.5,5.608-4.392,6.077c-9.11,1.465-18.406,2.393-27.631,2.754c-0.195,0.007-0.384,0.005-0.576-0.008
						C1390.79,3236.998,1388.632,3234.833,1388.524,3232.095z M1311.948,3225.5c-8.764-2.95-17.423-6.458-25.734-10.431
						c-2.642-1.263-3.761-4.433-2.498-7.072c1.261-2.645,4.417-3.755,7.07-2.501c7.929,3.792,16.186,7.138,24.547,9.956
						c2.776,0.935,4.267,3.943,3.335,6.714c-0.786,2.334-3.036,3.76-5.382,3.601
						C1312.84,3225.737,1312.392,3225.649,1311.948,3225.5z M1442.205,3224.724c-0.816-2.812,0.805-5.754,3.616-6.57
						c8.46-2.454,16.852-5.452,24.945-8.916c2.691-1.146,5.809,0.103,6.961,2.786c1.152,2.694-0.095,5.812-2.789,6.964
						c-8.486,3.635-17.29,6.782-26.163,9.353c-0.614,0.176-1.233,0.238-1.835,0.198
						C1444.781,3228.392,1442.843,3226.922,1442.205,3224.724z M1261.952,3201.592c-7.78-4.959-15.337-10.448-22.466-16.313
						c-2.262-1.861-2.585-5.205-0.724-7.466c1.861-2.262,5.202-2.591,7.466-0.725c6.797,5.599,14.005,10.831,21.427,15.558
						c2.468,1.574,3.196,4.852,1.619,7.324c-1.077,1.692-2.961,2.566-4.834,2.439
						C1263.585,3202.351,1262.728,3202.086,1261.952,3201.592z M1219.144,3166.384c-6.378-6.692-12.406-13.832-17.917-21.217
						c-1.751-2.346-1.269-5.666,1.078-7.417c2.343-1.752,5.669-1.272,7.422,1.078c5.256,7.041,11.009,13.851,17.095,20.238
						c2.021,2.119,1.939,5.477-0.181,7.498c-1.12,1.066-2.586,1.549-4.02,1.451
						C1221.346,3167.929,1220.096,3167.382,1219.144,3166.384z M1185.995,3121.935c-4.595-8.029-8.735-16.412-12.308-24.907
						c-1.135-2.703,0.134-5.81,2.834-6.945c2.698-1.136,5.807,0.138,6.943,2.832c3.404,8.104,7.353,16.095,11.738,23.747
						c1.455,2.543,0.574,5.784-1.97,7.237c-0.943,0.543-1.98,0.758-2.987,0.69
						C1188.535,3124.474,1186.912,3123.534,1185.995,3121.935z"/>
					<path style="fill:#91B3FA;" d="M1496.964,3207.108c1.021,0.069,2.071-0.156,3.022-0.709c3.923-2.283,7.795-4.694,11.512-7.162
						c2.438-1.621,3.104-4.913,1.484-7.354c-1.624-2.43-4.911-3.099-7.353-1.484c-3.544,2.355-7.239,4.654-10.981,6.835
						c-2.531,1.474-3.387,4.722-1.913,7.251C1493.656,3206.064,1495.267,3206.993,1496.964,3207.108z"/>
				</g>
				<g>
					<path style="fill:#91B3FA;" d="M1523.972,3109.831c0.782-0.837,0.948-2.078,0.412-3.091l-15.286-28.887
						c7.609-13.23,13.164-27.769,16.234-43.173l30.505-11.672c1.07-0.409,1.762-1.452,1.724-2.598l-1.308-39.179
						c-0.037-1.146-0.799-2.14-1.892-2.477l-31.216-9.611c-4.09-15.165-10.602-29.302-19.077-41.995l13.325-29.842
						c0.467-1.046,0.219-2.273-0.617-3.056l-28.629-26.78c-0.836-0.783-2.078-0.949-3.09-0.412l-28.886,15.286
						c-13.23-7.61-27.77-13.165-43.174-16.235l-11.671-30.504c-0.41-1.07-1.452-1.763-2.597-1.724l-39.181,1.308
						c-1.145,0.038-2.139,0.799-2.476,1.894l-9.612,31.216c-15.165,4.091-29.302,10.602-41.994,19.078l-29.842-13.326
						c-1.046-0.467-2.273-0.219-3.056,0.617l-26.78,28.63c-0.782,0.836-0.947,2.077-0.412,3.089l15.286,28.888
						c-7.61,13.23-13.165,27.769-16.234,43.173l-30.505,11.671c-1.07,0.409-1.762,1.452-1.724,2.597l1.308,39.181
						c0.038,1.145,0.799,2.139,1.894,2.476l31.215,9.611c4.09,15.165,10.602,29.302,19.077,41.995l-13.326,29.842
						c-0.467,1.046-0.219,2.273,0.618,3.056l28.629,26.78c0.837,0.783,2.078,0.948,3.091,0.413l28.887-15.286
						c13.23,7.61,27.769,13.164,43.173,16.234l11.671,30.505c0.41,1.069,1.452,1.762,2.598,1.724l39.18-1.308
						c1.145-0.039,2.14-0.799,2.476-1.894l9.611-31.214c15.165-4.09,29.301-10.603,41.995-19.078l29.842,13.326
						c1.046,0.467,2.273,0.219,3.056-0.617L1523.972,3109.831z"/>
					<g>
						<path style="fill:#BDD0FB;" d="M1376.368,3045.762c-10.474-2.272-19.433-8.489-25.227-17.502
							c-5.795-9.009-7.735-19.739-5.458-30.21c4.694-21.612,26.064-35.348,47.715-30.685c21.614,4.701,35.376,26.105,30.68,47.712
							c-2.274,10.471-8.489,19.43-17.5,25.225c-7.326,4.71-15.788,6.873-24.323,6.295
							C1380.293,3046.464,1378.324,3046.185,1376.368,3045.762z M1356.046,3000.298c-1.674,7.704-0.248,15.596,4.016,22.228
							c4.262,6.626,10.853,11.199,18.554,12.873l0,0c7.704,1.663,15.594,0.245,22.225-4.019
							c6.628-4.259,11.198-10.853,12.872-18.552c3.454-15.899-6.669-31.642-22.567-35.1c-1.435-0.31-2.867-0.511-4.291-0.607
							C1372.505,2976.15,1359.187,2985.837,1356.046,3000.298z"/>
					</g>
					<path style="fill:#BDD0FB;" d="M1377.496,3105.613c3.348,0.227,6.734,0.284,10.156,0.174c6.797-0.225,13.578-1.142,20.171-2.73
						c0.296-0.073,0.591-0.147,0.887-0.221c2.286-0.572,3.85-2.547,4.004-4.779c0.037-0.542-0.011-1.101-0.15-1.655
						c-0.711-2.841-3.595-4.552-6.432-3.851c-6.141,1.542-12.476,2.425-18.828,2.634h-0.003c-0.349,0.012-0.699,0.02-1.045,0.027
						c-15.038,0.358-29.595-3.046-42.63-9.742c-7.075-3.635-13.703-8.247-19.711-13.766c-0.049-0.045-0.098-0.089-0.147-0.134
						c-0.149-0.14-0.298-0.275-0.444-0.414c-17.417-16.294-27.449-38.394-28.244-62.231c-0.105-3.085-0.051-6.149,0.155-9.187
						c1.386-20.44,9.692-39.623,23.876-54.79c16.294-17.417,38.394-27.444,62.228-28.239c23.821-0.786,46.557,7.74,63.977,24.029
						c17.417,16.293,27.449,38.394,28.244,62.231c0.103,3.033,0.049,6.061-0.155,9.068c-0.885,13.041-4.612,25.739-10.961,37.175
						c-0.391,0.705-0.605,1.459-0.654,2.214c-0.134,1.984,0.86,3.967,2.716,4.996c2.564,1.414,5.788,0.501,7.212-2.066
						c7.102-12.796,11.275-27.006,12.267-41.592c0.228-3.369,0.289-6.754,0.175-10.146c-0.891-26.672-12.114-51.396-31.603-69.626
						c-19.487-18.225-44.891-27.792-71.572-26.884c-26.669,0.889-51.393,12.108-69.621,31.601
						c-15.871,16.963-25.161,38.425-26.712,61.293c-0.23,3.395-0.291,6.827-0.176,10.275
						C1286.205,3060.909,1327.022,3102.196,1377.496,3105.613z"/>
				</g>
			</g>
		</g>
		<g>
			
				<linearGradient id="SVGID_00000142885929252672943930000016125059731104390314_" gradientUnits="userSpaceOnUse" x1="4218.2881" y1="1588.3981" x2="4899.4438" y2="2306.4724" gradientTransform="matrix(0.9996 -0.0269 0.0269 0.9996 -1780.9319 2.4134)">
				<stop  offset="0" style="stop-color:#FF928E"/>
				<stop  offset="1" style="stop-color:#FE7062"/>
			</linearGradient>
			<path style="fill:url(#SVGID_00000142885929252672943930000016125059731104390314_);" d="M2958.006,1724.695l-585.521,3.23
				c-15.163,0.084-27.612-11.968-28.02-27.125l-1.896-70.378c-0.42-15.586,12.025-28.486,27.616-28.626l585.466-5.264
				c15.2-0.137,27.708,11.929,28.117,27.125l1.95,72.411C2986.139,1711.692,2973.635,1724.609,2958.006,1724.695z"/>
			<polygon style="fill:#FFFFFF;" points="2367.758,1704.88 2365.605,1624.911 2959.686,1619.948 2961.874,1701.225 			"/>
			
				<linearGradient id="SVGID_00000079465057394012909890000001291241550078265996_" gradientUnits="userSpaceOnUse" x1="-2839.8054" y1="950.4819" x2="-3115.449" y2="1958.936" gradientTransform="matrix(-0.9995 -0.0307 -0.0307 0.9995 41.6097 -0.291)">
				<stop  offset="0" style="stop-color:#FF928E"/>
				<stop  offset="1" style="stop-color:#FE7062"/>
			</linearGradient>
			<path style="fill:url(#SVGID_00000079465057394012909890000001291241550078265996_);" d="M3081.553,1723.948l-171.559,0.947
				c-23.823,0.132-39.753-24.481-29.877-46.16l54.449-119.53c5.249-11.524,16.691-18.97,29.354-19.103l113.884-1.198
				c17.813-0.187,32.485,13.945,32.965,31.753l3.226,119.781C3114.487,1708.726,3099.849,1723.847,3081.553,1723.948z"/>
			<polygon style="fill:#FFFFFF;" points="2896.053,1701.564 2958.945,1563.605 3086.396,1562.346 3090.114,1700.37 			"/>
			<polygon style="fill:#FFFFFF;" points="2426.293,1692.387 2384.453,1692.659 2382.95,1636.885 2424.79,1636.549 			"/>
			<polygon style="fill:#FFFFFF;" points="2483.148,1692.019 2441.176,1692.291 2439.672,1636.43 2481.642,1636.093 			"/>
			<polygon style="fill:#FFFFFF;" points="2540.18,1691.649 2498.077,1691.922 2496.57,1635.973 2538.671,1635.636 			"/>
			
				<linearGradient id="SVGID_00000003098032006988038790000002435813875424392845_" gradientUnits="userSpaceOnUse" x1="-2562.603" y1="1454.5266" x2="-2625.3511" y2="1839.9792" gradientTransform="matrix(-0.9995 -0.0307 -0.0307 0.9995 41.6097 -0.291)">
				<stop  offset="0" style="stop-color:#FF928E"/>
				<stop  offset="1" style="stop-color:#FE7062"/>
			</linearGradient>
			<polygon style="fill:url(#SVGID_00000003098032006988038790000002435813875424392845_);" points="2597.39,1691.278 
				2555.155,1691.552 2553.646,1635.516 2595.88,1635.177 			"/>
			
				<linearGradient id="SVGID_00000148629399255330816400000006630906827542916240_" gradientUnits="userSpaceOnUse" x1="4403.6704" y1="1521.6337" x2="4325.2334" y2="2081.8994" gradientTransform="matrix(0.9996 -0.0269 0.0269 0.9996 -1780.9319 2.4134)">
				<stop  offset="0" style="stop-color:#FF928E"/>
				<stop  offset="1" style="stop-color:#FE7062"/>
			</linearGradient>
			<polygon style="fill:url(#SVGID_00000148629399255330816400000006630906827542916240_);" points="2654.781,1690.906 
				2612.414,1691.18 2610.902,1635.056 2653.268,1634.717 			"/>
			
				<linearGradient id="SVGID_00000140004622351858339140000013812472338953788863_" gradientUnits="userSpaceOnUse" x1="4460.2163" y1="1529.5491" x2="4381.7793" y2="2089.8149" gradientTransform="matrix(0.9996 -0.0269 0.0269 0.9996 -1780.9319 2.4134)">
				<stop  offset="0" style="stop-color:#FF928E"/>
				<stop  offset="1" style="stop-color:#FE7062"/>
			</linearGradient>
			<polygon style="fill:url(#SVGID_00000140004622351858339140000013812472338953788863_);" points="2712.352,1690.532 
				2669.851,1690.808 2668.337,1634.596 2710.837,1634.255 			"/>
			
				<linearGradient id="SVGID_00000044880373018737973360000007483590200839696301_" gradientUnits="userSpaceOnUse" x1="4516.9404" y1="1537.4895" x2="4438.5034" y2="2097.7554" gradientTransform="matrix(0.9996 -0.0269 0.0269 0.9996 -1780.9319 2.4134)">
				<stop  offset="0" style="stop-color:#FF928E"/>
				<stop  offset="1" style="stop-color:#FE7062"/>
			</linearGradient>
			<polygon style="fill:url(#SVGID_00000044880373018737973360000007483590200839696301_);" points="2770.105,1690.158 
				2727.47,1690.434 2725.954,1634.133 2768.587,1633.792 			"/>
			
				<linearGradient id="SVGID_00000041284489709728208010000015806397713851494788_" gradientUnits="userSpaceOnUse" x1="4573.8433" y1="1545.4543" x2="4495.4063" y2="2105.7205" gradientTransform="matrix(0.9996 -0.0269 0.0269 0.9996 -1780.9319 2.4134)">
				<stop  offset="0" style="stop-color:#FF928E"/>
				<stop  offset="1" style="stop-color:#FE7062"/>
			</linearGradient>
			<polygon style="fill:url(#SVGID_00000041284489709728208010000015806397713851494788_);" points="2828.04,1689.782 
				2785.271,1690.059 2783.751,1633.67 2826.519,1633.327 			"/>
		</g>
		<g>
			
				<linearGradient id="SVGID_00000036946088339528425280000011672823583098592168_" gradientUnits="userSpaceOnUse" x1="1115.8486" y1="2526.9155" x2="857.7814" y2="1582.9332">
				<stop  offset="0" style="stop-color:#FF928E"/>
				<stop  offset="1" style="stop-color:#FE7062"/>
			</linearGradient>
			<path style="fill:url(#SVGID_00000036946088339528425280000011672823583098592168_);" d="M1400.625,2377.865H583.359
				c-4.142,0-7.5-3.358-7.5-7.5v-593.007c0-4.142,3.358-7.5,7.5-7.5h817.267c4.142,0,7.5,3.358,7.5,7.5v593.007
				C1408.125,2374.507,1404.767,2377.865,1400.625,2377.865z"/>
			<g>
				<g>
					<polygon style="fill:#91B3FA;" points="669.378,1961.185 634.072,1958.692 590.031,2087.623 647.768,2377.017 
						702.552,2368.936 					"/>
					<polygon style="fill:#7D97F4;" points="880.028,2356.643 810.276,2092.222 768.637,1949.062 669.378,1961.185 
						623.708,2094.317 686.415,2368.901 880.197,2368.901 					"/>
					<polygon style="fill:#7D97F4;" points="634.072,1958.692 722.94,1945.828 768.637,1949.062 669.378,1961.185 					"/>
					<polygon style="fill:#91B3FA;" points="654.046,2087.754 702.648,2072.489 702.648,2011.774 678.347,2013.932 					"/>
					<polygon style="fill:#91B3FA;" points="742.759,2004.142 764.977,1998.527 785.166,2065.546 752.362,2065.546 					"/>
				</g>
				<g>
					<g>
						<path style="fill:#91B3FA;" d="M1110.947,2299.729c-60.786,7.047-47.165-91.439-46.279-95.375l-88.954,70.496
							c0,0,7.779,51.836,86.249,74.916c19.854,5.839,37.666,5.161,53.213,0.91
							C1107.387,2331.481,1107.781,2313.849,1110.947,2299.729z"/>
						
							<linearGradient id="SVGID_00000062895471698877440340000001321069191023099553_" gradientUnits="userSpaceOnUse" x1="1414.619" y1="2329.9719" x2="1575.6323" y2="2329.9719" gradientTransform="matrix(0.9985 -0.0552 0.0552 0.9985 -433.0456 58.8591)">
							<stop  offset="0" style="stop-color:#FEBBBA"/>
							<stop  offset="1" style="stop-color:#FF928E"/>
						</linearGradient>
						<path style="fill:url(#SVGID_00000062895471698877440340000001321069191023099553_);" d="M1227.255,2263.888
							c-23.6-14.553-48.474,2.678-48.474,2.678c-29.29,21.552-51.304,31.247-67.833,33.163c-3.167,14.119-3.561,31.751,4.229,50.947
							c33.638-9.198,56.632-35.182,66.517-48.408c3.558-4.761,10.262-5.925,15.123-2.505c4.939,3.474,9.817,8.337,9.282,13.77
							c-1.056,10.711,11.454,13.406,12.171,9.504c0.716-3.903-5.69-26.453-5.69-26.453s26.017,23.424,36.165,32.416
							c10.148,8.993,21.721-1.2,21.721-1.2S1250.855,2278.441,1227.255,2263.888z"/>
						<path style="fill:#BDD0FB;" d="M812.857,2067.333c0,0,86.765-40.428,259.423,86.774c0,0,15.37,27.788,1.727,54.03
							c-13.643,26.243-97.053,94.378-112.965,164.131c0,0-52.855,8.495-228.973,9.063
							C732.07,2381.333,729.317,2215.882,812.857,2067.333z"/>
						
							<linearGradient id="SVGID_00000149357662180983211350000010649442655642574015_" gradientUnits="userSpaceOnUse" x1="1260.9967" y1="2092.3406" x2="1367.8286" y2="2092.3406" gradientTransform="matrix(0.9985 -0.0552 0.0552 0.9985 -433.0456 58.8591)">
							<stop  offset="0" style="stop-color:#A22B25"/>
							<stop  offset="1" style="stop-color:#C0423C"/>
						</linearGradient>
						<path style="fill:url(#SVGID_00000149357662180983211350000010649442655642574015_);" d="M986.511,2025.938l-40.753,55.364
							c-4.046,5.497-4.597,12.863-1.26,18.817c6.746,12.032,22.125,29.242,53.891,24.99c9.449-1.265,17.538-7.456,21.209-16.254
							l27.053-64.823L986.511,2025.938z"/>
						<path style="fill:#BDD0FB;" d="M756.692,2297.91c-12.618-41.38,86.548-140.667,86.548-140.667l-30.383-89.909
							c0,0-217.002,162.424-152.927,279.859c9.186,16.835,20.786,28.342,33.907,35.74
							C709.281,2333.1,736.953,2309.108,756.692,2297.91z"/>
						<path style="fill:#7D97F4;" d="M756.281,2291.806c-1.107,0.061-2.157-0.634-2.495-1.745
							c-12.903-42.308,83.073-139.031,87.163-143.13c0.961-0.961,2.522-0.967,3.493-0.003c0.965,0.964,0.964,2.529,0.003,3.493
							c-0.983,0.981-97.981,98.704-85.936,138.201c0.397,1.304-0.338,2.684-1.642,3.082
							C756.675,2291.762,756.477,2291.796,756.281,2291.806z"/>
						
							<linearGradient id="SVGID_00000041283814538611101240000010328658624212338612_" gradientUnits="userSpaceOnUse" x1="1188.1372" y1="2331.8999" x2="779.1466" y2="3042.6052" gradientTransform="matrix(0.9985 -0.0552 0.0552 0.9985 -433.0456 58.8591)">
							<stop  offset="0" style="stop-color:#A22B25"/>
							<stop  offset="1" style="stop-color:#C0423C"/>
						</linearGradient>
						<path style="fill:url(#SVGID_00000041283814538611101240000010328658624212338612_);" d="M914.518,2285.568
							c0,0-121.046,54.861-153.236,20.405c-2.183-2.338-3.672-5.052-4.59-8.063c-19.739,11.199-47.412,35.19-62.854,85.023
							c67.355,37.978,174.984-32.865,204-53.6c4.773-3.411,10.646-4.839,16.448-3.967c11.73,1.764,31.96,4.193,42.673,1.932
							c15.673-3.308,41.459,51.197,66.129,32.582C1023.087,2359.88,995.792,2264.17,914.518,2285.568z"/>
						<g>
							
								<linearGradient id="SVGID_00000177448483602472747210000005835171136041634692_" gradientUnits="userSpaceOnUse" x1="1657.598" y1="584.3205" x2="1524.0372" y2="761.0104" gradientTransform="matrix(0.953 -0.3029 0.3029 0.953 -704.1665 1896.8171)">
								<stop  offset="0" style="stop-color:#A22B25"/>
								<stop  offset="1" style="stop-color:#C0423C"/>
							</linearGradient>
							<path style="fill:url(#SVGID_00000177448483602472747210000005835171136041634692_);" d="M1077.255,1942.911
								c0.533,1.678-3.75,118.018-3.75,118.018l-66.376-3.857l-12.323-110.869
								C994.807,1946.202,1068.325,1914.818,1077.255,1942.911z"/>
							
								<linearGradient id="SVGID_00000091015775403328663660000004864479776471383741_" gradientUnits="userSpaceOnUse" x1="1555.5933" y1="626.9427" x2="1715.1316" y2="626.9427" gradientTransform="matrix(0.953 -0.3029 0.3029 0.953 -704.1665 1896.8171)">
								<stop  offset="0" style="stop-color:#09005D"/>
								<stop  offset="1" style="stop-color:#1A0F91"/>
							</linearGradient>
							<path style="fill:url(#SVGID_00000091015775403328663660000004864479776471383741_);" d="M1013.26,1968.3l1.917,58.872
								c0.024,0.755,0.146,1.485,0.374,2.205c1.395,4.408,7.306,19.222,22.093,12.25c13.418-6.326,25.758-11.899,35.128-10.652
								c4.207,0.56,7.296,4.214,7.139,8.456c-0.392,10.57-1.715,34.373-6.021,54.877c-0.874,4.161-4.813,6.924-9.034,6.418
								c-12.72-1.523-39.458-5.486-60.221-13.713c-2.813-1.115-4.798-3.644-5.168-6.647c-1.8-14.644-7.438-59.13-10.926-71.283
								c-3.274-11.407-18.704-16.005-25.321-17.474c-2.17-0.482-4.029-1.819-5.179-3.72c-4.066-6.72-10.79-22.715,9.063-33.024
								c4.155-2.157,5.684-7.277,3.401-11.365c-4.544-8.138-8.047-21.126,6.98-31.097c15.274-10.135,29.058-3.383,36.899,2.661
								c3.171,2.444,7.562,2.168,10.55-0.496c1.701-1.516,4.084-2.317,7.348-0.965c4.398,1.822,9.396-0.747,10.752-5.311
								c2.606-8.767,9.217-18.793,25.831-18.708c29.482,0.151,38.002,31.379,33.53,51.249
								c-4.472,19.871-36.427,17.891-53.425,11.069c-12.923-5.187-26.91,4.82-32.872,9.915
								C1014.211,1963.431,1013.179,1965.817,1013.26,1968.3z"/>
							
								<linearGradient id="SVGID_00000040560421595518691970000017025199859388727431_" gradientUnits="userSpaceOnUse" x1="1461.9852" y1="724.2477" x2="1569.1107" y2="614.3398" gradientTransform="matrix(0.953 -0.3029 0.3029 0.953 -704.1665 1896.8171)">
								<stop  offset="0" style="stop-color:#FEBBBA"/>
								<stop  offset="1" style="stop-color:#FF928E"/>
							</linearGradient>
							<path style="fill:url(#SVGID_00000040560421595518691970000017025199859388727431_);" d="M989.452,2030.511
								c0,0,6.307-34.958-7.143-41.031c-13.45-6.072-30.686,1.101-22.769,24.353
								C969.388,2042.756,989.452,2030.511,989.452,2030.511z"/>
							<path style="fill:#91B3FA;" d="M1076.03,1952.484c-0.447,0-0.818-0.348-0.84-0.798c-0.023-0.463,0.335-0.86,0.798-0.883
								c0.87-0.043,21.252-1.257,21.593-17.956c0.233-11.417-4.806-20.714-9.599-25.605c-2.597-2.649-5.311-4.231-7.258-4.231
								c-0.463,0-0.84-0.378-0.84-0.84c0-0.463,0.377-0.84,0.84-0.84c2.426,0,5.508,1.727,8.456,4.737
								c5.032,5.134,10.324,14.877,10.081,26.813c-0.374,18.271-22.962,19.591-23.189,19.604
								C1076.056,1952.484,1076.043,1952.484,1076.03,1952.484z"/>
						</g>
					</g>
					<g>
						<g>
							<g>
								
									<linearGradient id="SVGID_00000094616288156879435530000012614613382845245581_" gradientUnits="userSpaceOnUse" x1="1268.6272" y1="2106.7708" x2="1329.8058" y2="2065.2939" gradientTransform="matrix(0.9926 -0.1214 0.1214 0.9926 -539.9148 138.106)">
									<stop  offset="0" style="stop-color:#4F52FF"/>
									<stop  offset="1" style="stop-color:#4042E2"/>
								</linearGradient>
								<path style="fill:url(#SVGID_00000094616288156879435530000012614613382845245581_);" d="M1041.744,2065.665
									c-40.788,1.107-62.381-42.056-62.594-42.493l2.794-1.367c0.205,0.418,20.944,41.802,59.715,40.75L1041.744,2065.665z"/>
							</g>
							
								<linearGradient id="SVGID_00000101808932075282796730000005338194647211344000_" gradientUnits="userSpaceOnUse" x1="1020.7328" y1="2086.5889" x2="1060.2388" y2="2052.115">
								<stop  offset="0" style="stop-color:#4F52FF"/>
								<stop  offset="1" style="stop-color:#4042E2"/>
							</linearGradient>
							<path style="fill:url(#SVGID_00000101808932075282796730000005338194647211344000_);" d="M1052.935,2068.664h-14.458
								c-0.614,0-1.115-0.502-1.115-1.115v-5.505c0-0.614,0.502-1.115,1.115-1.115h14.458c0.614,0,1.115,0.502,1.115,1.115v5.505
								C1054.051,2068.163,1053.549,2068.664,1052.935,2068.664z"/>
						</g>
						<g>
							
								<linearGradient id="SVGID_00000154401690103554215710000004894234686079864987_" gradientUnits="userSpaceOnUse" x1="1460.4611" y1="1958.1171" x2="1027.4697" y2="2029.6548" gradientTransform="matrix(0.9926 -0.1214 0.1214 0.9926 -539.9148 138.106)">
								<stop  offset="0" style="stop-color:#4F52FF"/>
								<stop  offset="1" style="stop-color:#4042E2"/>
							</linearGradient>
							<path style="fill:url(#SVGID_00000154401690103554215710000004894234686079864987_);" d="M980.991,1982.272
								c0,0,17.82-64.208,58.602-68.925c0,0-11.104-5.689-23.394-0.353c-12.291,5.336-44.434,35.784-45.409,70.526
								C978.817,1986.516,980.991,1982.272,980.991,1982.272z"/>
							
								<linearGradient id="SVGID_00000139289665577224416680000008602024902157630116_" gradientUnits="userSpaceOnUse" x1="1131.7499" y1="1952.2183" x2="1070.1234" y2="1974.6279">
								<stop  offset="0" style="stop-color:#4F52FF"/>
								<stop  offset="1" style="stop-color:#4042E2"/>
							</linearGradient>
							<path style="fill:url(#SVGID_00000139289665577224416680000008602024902157630116_);" d="M976.908,1972.79
								c-22.56,3.455-21.178,31.841-21.178,31.841c-2.6,20.426,2.893,30.879,10.327,36.092c5.079,3.562,11.659,4.186,17.325,1.663
								c5.666-2.524,9.594-7.835,10.349-13.991c0.682-5.56,1.411-10.842,1.916-12.705
								C996.871,2011.173,999.468,1969.334,976.908,1972.79z"/>
						</g>
						
							<linearGradient id="SVGID_00000092414135561039490760000003906900466838555269_" gradientUnits="userSpaceOnUse" x1="973.4861" y1="1972.6492" x2="976.8475" y2="1692.5299">
							<stop  offset="0" style="stop-color:#4F52FF"/>
							<stop  offset="1" style="stop-color:#4042E2"/>
						</linearGradient>
						<path style="fill:url(#SVGID_00000092414135561039490760000003906900466838555269_);" d="M978.615,1980.033
							c-4.599-1.031-9.292,1.213-11.366,5.445c-14.846,30.287,0.576,51.2,8.604,52.008c8.461,0.852,10.26-39.966,8.965-50.516
							C984.274,1982.55,981.572,1980.696,978.615,1980.033z"/>
					</g>
				</g>
				
					<linearGradient id="SVGID_00000021099640342905823510000017356938427625974673_" gradientUnits="userSpaceOnUse" x1="-20.6228" y1="2460.8779" x2="223.1356" y2="2340.6235" gradientTransform="matrix(1 0 0 1 991.2073 0)">
					<stop  offset="0" style="stop-color:#4F52FF"/>
					<stop  offset="1" style="stop-color:#4042E2"/>
				</linearGradient>
				<path style="fill:url(#SVGID_00000021099640342905823510000017356938427625974673_);" d="M1307.95,2362.8H981.13
					c-7.105,0-10.341,8.656-10.341,15.761v3.177h350.354v-3.177C1321.143,2371.456,1315.056,2362.8,1307.95,2362.8z"/>
				<g>
					<g>
						
							<linearGradient id="SVGID_00000080165550175748777870000015202714905174698686_" gradientUnits="userSpaceOnUse" x1="1274.8196" y1="2217.8835" x2="928.5923" y2="2594.3633">
							<stop  offset="0" style="stop-color:#4F52FF"/>
							<stop  offset="1" style="stop-color:#4042E2"/>
						</linearGradient>
						<path style="fill:url(#SVGID_00000080165550175748777870000015202714905174698686_);" d="M1438.378,2124.595l-41.907,243.979
							c-1.368,7.969-1.061,14.817-19.702,14.431l-313.75-0.008c-10.023,0-16.689-6.62-14.893-14.81l54.967-250.539
							c1.672-7.622,10.802-13.633,20.397-13.423l300.68,6.555C1433.307,2110.979,1439.654,2117.165,1438.378,2124.595z"/>
						
							<linearGradient id="SVGID_00000157293349542135139990000017116993767209591432_" gradientUnits="userSpaceOnUse" x1="1620.2065" y1="2073.9231" x2="1327.7625" y2="2168.043">
							<stop  offset="0" style="stop-color:#4F52FF"/>
							<stop  offset="1" style="stop-color:#4042E2"/>
						</linearGradient>
						<path style="fill:url(#SVGID_00000157293349542135139990000017116993767209591432_);" d="M1131.047,2108.813l-57.918,268.501
							c-0.722,3.344-5.358,6.078-9.43,6.078c-10.022,0-21.955,2.575-15.63-14.94l55.008-250.728
							c1.681-7.663,10.818-13.708,20.414-13.499l5.277,0.115C1130.448,2105.371,1131.434,2107.014,1131.047,2108.813z"/>
						<g>
							<g>
								<path style="fill:#91B3FA;" d="M1387.274,2284.238c-1.166-0.036-1.938-0.9-1.724-1.929l29.976-144.554
									c1.36-6.56-4.745-10.774-11.439-11.064l-31.869-1.382c-1.146-0.05-1.903-0.892-1.692-1.88
									c0.212-0.988,1.312-1.749,2.458-1.699l31.85,1.39c9.943,0.434,16.446,6.933,14.817,14.811l-29.881,144.509
									C1389.557,2283.468,1388.439,2284.274,1387.274,2284.238z"/>
							</g>
						</g>
					</g>
				</g>
			</g>
		</g>
		<g>
			<g>
				
					<linearGradient id="SVGID_00000018930531351092367070000004790911942112778905_" gradientUnits="userSpaceOnUse" x1="-4530.4077" y1="1347.4865" x2="-4530.4077" y2="2195.5315" gradientTransform="matrix(-1 0 0 1 -3533.4106 0)">
					<stop  offset="0" style="stop-color:#4F52FF"/>
					<stop  offset="1" style="stop-color:#4042E2"/>
				</linearGradient>
				<path style="fill:url(#SVGID_00000018930531351092367070000004790911942112778905_);" d="M640.31,1730.839l709.749-1.137
					c7.533-0.012,13.697-6.001,13.925-13.531l3.669-121.1c0.239-7.892-6.111-14.41-14.006-14.377l-709.804,2.976
					c-7.519,0.031-13.661,6.015-13.889,13.531l-3.614,119.261C626.102,1724.34,632.429,1730.852,640.31,1730.839z"/>
				<polygon style="fill:#7D97F4;" points="1336.943,1702.473 1339.805,1608.001 656.336,1610.543 653.507,1703.892 				"/>
				
					<linearGradient id="SVGID_00000036245600753809210040000002295511800697354926_" gradientUnits="userSpaceOnUse" x1="-4160.1396" y1="1347.4866" x2="-4160.1396" y2="2195.72" gradientTransform="matrix(-1 0 0 1 -3533.4106 0)">
					<stop  offset="0" style="stop-color:#4F52FF"/>
					<stop  offset="1" style="stop-color:#4042E2"/>
				</linearGradient>
				<path style="fill:url(#SVGID_00000036245600753809210040000002295511800697354926_);" d="M514.542,1730.966l254.51-0.408
					l-87.76-197.975c-3.704-8.355-12.004-13.724-21.143-13.675l-149.913,0.799c-11.359,0.06-20.63,9.103-20.974,20.457
					l-4.843,159.802C483.905,1716.952,497.549,1730.994,514.542,1730.966z"/>
				<path style="fill:#91B3FA;" d="M719.261,1685.413l-58.384-131.781c-2.096-4.73-6.793-7.77-11.966-7.745l-120.624,0.586
					c-7.012,0.034-12.737,5.615-12.949,12.624l-3.987,131.575c-0.223,7.352,5.685,13.428,13.04,13.413l182.995-0.38
					C716.788,1703.685,723.07,1694.01,719.261,1685.413z"/>
				<polygon style="fill:#FFFFFF;" points="1267.926,1688.328 1317.254,1688.213 1319.249,1622.378 1269.92,1622.549 				"/>
				<polygon style="fill:#FFFFFF;" points="1201.215,1688.483 1250.428,1688.368 1252.421,1622.609 1203.206,1622.781 				"/>
				<polygon style="fill:#FFFFFF;" points="1134.659,1688.637 1183.758,1688.523 1185.748,1622.841 1136.648,1623.012 				"/>
				<polygon style="fill:#FFFFFF;" points="1068.257,1688.792 1117.242,1688.678 1119.23,1623.072 1070.244,1623.242 				"/>
				
					<linearGradient id="SVGID_00000070837075218018188080000015056408438968751758_" gradientUnits="userSpaceOnUse" x1="-2738.052" y1="1258.1433" x2="-2738.052" y2="2082.9143" gradientTransform="matrix(-0.9995 -0.0303 -0.0303 0.9995 -1662.3195 25.2381)">
					<stop  offset="0" style="stop-color:#4F52FF"/>
					<stop  offset="1" style="stop-color:#4042E2"/>
				</linearGradient>
				<polygon style="fill:url(#SVGID_00000070837075218018188080000015056408438968751758_);" points="1002.009,1688.946 
					1050.881,1688.832 1052.867,1623.302 1003.994,1623.472 				"/>
				
					<linearGradient id="SVGID_00000170240772018514292320000017663757449947960493_" gradientUnits="userSpaceOnUse" x1="-2671.9326" y1="1258.144" x2="-2671.9326" y2="2082.9153" gradientTransform="matrix(-0.9995 -0.0303 -0.0303 0.9995 -1662.3195 25.2381)">
					<stop  offset="0" style="stop-color:#4F52FF"/>
					<stop  offset="1" style="stop-color:#4042E2"/>
				</linearGradient>
				<polygon style="fill:url(#SVGID_00000170240772018514292320000017663757449947960493_);" points="935.914,1689.099 
					984.673,1688.986 986.656,1623.532 937.896,1623.701 				"/>
				
					<linearGradient id="SVGID_00000015327731503272540830000012416726213395813805_" gradientUnits="userSpaceOnUse" x1="-2605.9666" y1="1258.1443" x2="-2605.9666" y2="2082.9163" gradientTransform="matrix(-0.9995 -0.0303 -0.0303 0.9995 -1662.3195 25.2381)">
					<stop  offset="0" style="stop-color:#4F52FF"/>
					<stop  offset="1" style="stop-color:#4042E2"/>
				</linearGradient>
				<polygon style="fill:url(#SVGID_00000015327731503272540830000012416726213395813805_);" points="869.972,1689.253 
					918.618,1689.14 920.599,1623.761 871.952,1623.93 				"/>
				
					<linearGradient id="SVGID_00000152223845609039086630000006116571855652066225_" gradientUnits="userSpaceOnUse" x1="-2540.1526" y1="1258.145" x2="-2540.1526" y2="2082.9187" gradientTransform="matrix(-0.9995 -0.0303 -0.0303 0.9995 -1662.3195 25.2381)">
					<stop  offset="0" style="stop-color:#4F52FF"/>
					<stop  offset="1" style="stop-color:#4042E2"/>
				</linearGradient>
				<polygon style="fill:url(#SVGID_00000152223845609039086630000006116571855652066225_);" points="804.182,1689.406 
					852.716,1689.293 854.695,1623.99 806.159,1624.158 				"/>
			</g>
		</g>
		<path style="opacity:0.9;fill:#FFFFFF;" d="M1811.792,1516.805l8.119,296.943c0.916,33.499,39.952,51.295,65.84,30.016
			l228-164.693c22.889-18.813,18.317-55.067-8.526-67.609l-236.119-132.25C1841.967,1466.531,1810.974,1486.859,1811.792,1516.805z"
			/>
		<g>
			<g>
				<path style="fill:#91B3FA;" d="M2525.604,932.725c-1.133,0-2.237-0.461-3.038-1.311l-72.296-76.469
					c-0.802-0.845-1.213-1.992-1.133-3.156l6.953-101.491c0.122-1.792,1.376-3.303,3.113-3.76l122.348-31.978
					c1.651-0.433,3.407,0.183,4.421,1.563l62.562,84.81c0.696,0.947,0.966,2.14,0.737,3.29l-19.463,98.715
					c-0.308,1.572-1.488,2.825-3.033,3.234l-100.103,26.413C2526.319,932.681,2525.959,932.725,2525.604,932.725z M2457.604,850.533
					l69.333,73.338l95.175-25.116l18.6-94.338l-59.786-81.05l-116.7,30.505L2457.604,850.533z"/>
				<path style="fill:#91B3FA;" d="M2453.305,856.256c-1.802,0-3.466-1.176-4.005-2.988c-0.657-2.217,0.604-4.544,2.817-5.201
					l93.809-27.867l32.697-102.858c0.7-2.204,3.062-3.425,5.25-2.719c2.2,0.698,3.417,3.05,2.719,5.25l-33.368,104.969
					c-0.421,1.323-1.466,2.347-2.794,2.743l-95.932,28.5C2454.102,856.199,2453.7,856.256,2453.305,856.256z"/>
				<path style="fill:#91B3FA;" d="M2625.707,906.312c-1.088,0-2.176-0.425-2.996-1.266l-76.467-78.555
					c-1.609-1.653-1.574-4.299,0.079-5.911c1.658-1.609,4.301-1.572,5.914,0.082l76.467,78.555c1.608,1.653,1.573,4.299-0.08,5.912
					C2627.809,905.92,2626.758,906.312,2625.707,906.312z"/>
			</g>
			<g>
				<path style="fill:#91B3FA;" d="M1417.533,832.325c-1.149,0-2.269-0.468-3.08-1.329l-62.344-65.942
					c-0.813-0.857-1.229-2.021-1.149-3.201l5.993-87.521c0.124-1.818,1.395-3.349,3.157-3.813l105.506-27.574
					c1.681-0.435,3.453,0.187,4.484,1.586l53.951,73.133c0.706,0.956,0.979,2.17,0.747,3.337l-16.785,85.123
					c-0.312,1.594-1.509,2.865-3.076,3.279l-86.322,22.78C1418.257,832.279,1417.893,832.325,1417.533,832.325z M1359.547,760.578
					l59.338,62.766l81.324-21.463l15.909-80.685l-51.136-69.32l-99.777,26.079L1359.547,760.578z"/>
				<path style="fill:#91B3FA;" d="M1355.187,766.383c-1.828,0-3.515-1.193-4.062-3.031c-0.667-2.244,0.613-4.608,2.857-5.275
					l80.571-23.935l28.093-88.378c0.708-2.232,3.103-3.465,5.325-2.757c2.232,0.708,3.465,3.093,2.757,5.324l-28.775,90.518
					c-0.427,1.341-1.486,2.38-2.834,2.782l-82.724,24.576C1355.995,766.325,1355.587,766.383,1355.187,766.383z"/>
				<path style="fill:#91B3FA;" d="M1503.855,809.545c-1.104,0-2.207-0.43-3.037-1.283l-65.942-67.739
					c-1.634-1.677-1.598-4.36,0.078-5.995c1.681-1.627,4.362-1.594,5.995,0.083l65.941,67.739c1.633,1.677,1.598,4.36-0.079,5.995
					C1505.987,809.143,1504.921,809.545,1503.855,809.545z"/>
			</g>
			<path style="fill:#91B3FA;" d="M2109.4,941.405c-0.732,0-1.469-0.13-2.171-0.403l-104.487-40.077
				c-2.096-0.805-3.577-2.694-3.849-4.921c-0.273-2.227,0.705-4.424,2.543-5.709l88.742-62.068c1.72-1.203,3.933-1.433,5.86-0.61
				c1.925,0.823,3.29,2.582,3.61,4.655l15.745,102.144c0.329,2.138-0.503,4.288-2.185,5.644
				C2112.113,940.943,2110.762,941.405,2109.4,941.405z M2017.744,893.688l84.07,32.248l-12.668-82.186L2017.744,893.688z"/>
			<path style="fill:#91B3FA;" d="M1744.59,654.82c-0.968,0-1.932-0.272-2.779-0.811c-1.55-0.993-2.454-2.731-2.376-4.57
				l5.498-128.83c0.081-1.905,1.209-3.613,2.931-4.435c1.724-0.827,3.759-0.63,5.294,0.509l100.325,74.204
				c1.434,1.058,2.217,2.782,2.073,4.561c-0.141,1.779-1.192,3.356-2.776,4.173l-105.823,54.626
				C1746.213,654.629,1745.402,654.82,1744.59,654.82z M1754.83,530.757l-4.704,110.24l90.551-46.745L1754.83,530.757z"/>
			<path style="fill:#91B3FA;" d="M2240.452,666.029c-18.892,0-34.263-15.372-34.263-34.264c0-18.891,15.372-34.263,34.263-34.263
				c18.891,0,34.263,15.372,34.263,34.263C2274.715,650.657,2259.344,666.029,2240.452,666.029z M2240.452,608.662
				c-12.74,0-23.104,10.364-23.104,23.103c0,12.74,10.364,23.104,23.104,23.104s23.104-10.364,23.104-23.104
				C2263.556,619.025,2253.192,608.662,2240.452,608.662z"/>
			<path style="fill:#91B3FA;" d="M1669.183,895.273c-21.11,0-38.283-17.173-38.283-38.281s17.173-38.282,38.283-38.282
				c21.11,0,38.283,17.174,38.283,38.282S1690.293,895.273,1669.183,895.273z M1669.183,826.974
				c-16.552,0-30.019,13.465-30.019,30.018c0,16.552,13.467,30.017,30.019,30.017c16.552,0,30.019-13.465,30.019-30.017
				C1699.202,840.44,1685.735,826.974,1669.183,826.974z"/>
		</g>
		<g>
			<g>
				
					<linearGradient id="SVGID_00000127731373153904857950000013843037518304044970_" gradientUnits="userSpaceOnUse" x1="3321.0488" y1="2143.8792" x2="3121.6038" y2="2177.4934">
					<stop  offset="0" style="stop-color:#4F52FF"/>
					<stop  offset="1" style="stop-color:#4042E2"/>
				</linearGradient>
				<polygon style="fill:url(#SVGID_00000127731373153904857950000013843037518304044970_);" points="2947.879,1891.857 
					3000.89,1888.114 3067.017,2081.701 2980.326,2516.22 2898.07,2504.087 				"/>
				
					<linearGradient id="SVGID_00000140705078669674196710000008189635596507080608_" gradientUnits="userSpaceOnUse" x1="-1652.5787" y1="2197.5225" x2="81.41" y2="2168.6228" gradientTransform="matrix(-1 0 0 1 1583.2321 0)">
					<stop  offset="0" style="stop-color:#4F52FF"/>
					<stop  offset="1" style="stop-color:#4042E2"/>
				</linearGradient>
				<polygon style="fill:url(#SVGID_00000140705078669674196710000008189635596507080608_);" points="2631.594,2485.629 
					2736.324,2088.606 2798.844,1873.655 2947.879,1891.857 3016.452,2091.751 2922.299,2504.033 2631.34,2504.033 				"/>
				
					<linearGradient id="SVGID_00000115485655469734948630000015297859916116900522_" gradientUnits="userSpaceOnUse" x1="-1115.3116" y1="2058.9629" x2="-1456.4915" y2="1757.1761" gradientTransform="matrix(-1 0 0 1 1583.2321 0)">
					<stop  offset="0" style="stop-color:#4F52FF"/>
					<stop  offset="1" style="stop-color:#4042E2"/>
				</linearGradient>
				<polygon style="fill:url(#SVGID_00000115485655469734948630000015297859916116900522_);" points="3000.89,1888.114 
					2867.458,1868.798 2798.844,1873.655 2947.879,1891.857 				"/>
				<polygon style="fill:#7D97F4;" points="2970.901,2081.898 2897.925,2058.978 2897.925,1967.816 2934.413,1971.055 				"/>
				<polygon style="fill:#7D97F4;" points="2837.699,1956.357 2804.339,1947.925 2774.026,2048.553 2823.281,2048.553 				"/>
			</g>
			<g>
				<g>
					
						<linearGradient id="SVGID_00000023983367333157547030000015537677903924277910_" gradientUnits="userSpaceOnUse" x1="428.9228" y1="3119.6501" x2="502.7682" y2="3119.6501" gradientTransform="matrix(-0.9985 -0.0552 -0.0552 0.9985 3007.4849 58.8591)">
						<stop  offset="0" style="stop-color:#FEBBBA"/>
						<stop  offset="1" style="stop-color:#FF928E"/>
					</linearGradient>
					<path style="fill:url(#SVGID_00000023983367333157547030000015537677903924277910_);" d="M2388.686,3105.738l16.45,57.678
						c2.482,8.704-1.009,18.267-8.916,22.672c-3.959,2.206-9.312,4.153-16.548,5.378c-10.212,1.729-20.365-3.504-24.711-12.906
						l-20.981-45.392L2388.686,3105.738z"/>
					
						<linearGradient id="SVGID_00000087400084011498998990000012848101347762738819_" gradientUnits="userSpaceOnUse" x1="326.7422" y1="2924.2646" x2="640.5508" y2="2484.4382" gradientTransform="matrix(-0.9985 -0.0552 -0.0552 0.9985 3007.4849 58.8591)">
						<stop  offset="0" style="stop-color:#2B3582"/>
						<stop  offset="0.2305" style="stop-color:#252A70"/>
						<stop  offset="0.7285" style="stop-color:#19164F"/>
						<stop  offset="1" style="stop-color:#150E42"/>
					</linearGradient>
					<path style="fill:url(#SVGID_00000087400084011498998990000012848101347762738819_);" d="M2607.351,2606.842
						c0,0-248.275,29.034-359.15,120.656c-110.875,91.622,74.267,413.653,74.267,413.653s33.159,1.627,75.231-30.584
						c0,0-107.042-240.417,0.107-302.883c120.463-70.228,255.361-80.089,255.361-80.089l-43.854-113.107L2607.351,2606.842z"/>
					
						<linearGradient id="SVGID_00000106108274779332777770000013907119218349488017_" gradientUnits="userSpaceOnUse" x1="213.1669" y1="3113.1768" x2="229.6537" y2="2552.6316" gradientTransform="matrix(-0.9985 -0.0552 -0.0552 0.9985 3007.4849 58.8591)">
						<stop  offset="0" style="stop-color:#09005D"/>
						<stop  offset="1" style="stop-color:#1A0F91"/>
					</linearGradient>
					<path style="fill:url(#SVGID_00000106108274779332777770000013907119218349488017_);" d="M2848.151,2546.103
						c0,0,46.546,149.053-10.522,190.446c-57.068,41.392-190.119,84.194-224.111,171.041
						c-33.992,86.847-67.116,214.48-136.577,271.71c0,0-68.85,19.464-85.207,0c0,0,48.718-239.537,77.183-304.013
						c24.651-55.837,60.878-136.397,124.128-179.047c18.106-12.209,16.231-33.237,9.293-53.943l-12.635-37.707L2848.151,2546.103z"
						/>
					
						<linearGradient id="SVGID_00000106111932192472962020000000624279695541727873_" gradientUnits="userSpaceOnUse" x1="2977.917" y1="1756.8896" x2="2756.063" y2="1982.1053">
						<stop  offset="0" style="stop-color:#FF928E"/>
						<stop  offset="1" style="stop-color:#FE7062"/>
					</linearGradient>
					<path style="fill:url(#SVGID_00000106111932192472962020000000624279695541727873_);" d="M2284.873,2400.174
						c91.269,10.58,70.817-137.294,69.488-143.203l133.562,105.848c0,0-11.681,77.83-129.502,112.485
						c-29.809,8.767-56.555,7.75-79.898,1.366C2290.219,2447.848,2289.627,2421.374,2284.873,2400.174z"/>
					
						<linearGradient id="SVGID_00000010309632938010001550000004087354562561637041_" gradientUnits="userSpaceOnUse" x1="587.3156" y1="2388.6084" x2="829.0735" y2="2388.6084" gradientTransform="matrix(-0.9985 -0.0552 -0.0552 0.9985 3007.4849 58.8591)">
						<stop  offset="0" style="stop-color:#FEBBBA"/>
						<stop  offset="1" style="stop-color:#FF928E"/>
					</linearGradient>
					<path style="fill:url(#SVGID_00000010309632938010001550000004087354562561637041_);" d="M2110.24,2346.359
						c35.435-21.851,72.783,4.021,72.783,4.021c43.978,32.361,77.032,46.917,101.85,49.794c4.754,21.2,5.346,47.674-6.351,76.496
						c-50.507-13.811-85.032-52.824-99.873-72.683c-5.343-7.149-15.408-8.896-22.708-3.761c-7.416,5.217-14.74,12.519-13.936,20.674
						c1.586,16.083-17.198,20.13-18.274,14.27c-1.075-5.861,8.543-39.718,8.543-39.718s-39.064,35.171-54.301,48.672
						c-15.237,13.503-32.613-1.802-32.613-1.802S2074.804,2368.211,2110.24,2346.359z"/>
					
						<linearGradient id="SVGID_00000028319680904389092560000007915379211299433102_" gradientUnits="userSpaceOnUse" x1="3092.6372" y1="1869.8979" x2="2870.7827" y2="2095.114">
						<stop  offset="0" style="stop-color:#FF928E"/>
						<stop  offset="1" style="stop-color:#FE7062"/>
					</linearGradient>
					<path style="fill:url(#SVGID_00000028319680904389092560000007915379211299433102_);" d="M2732.449,2051.237
						c0,0-130.276-60.702-389.518,130.29c0,0-23.078,41.722-2.593,81.125c20.484,39.403,225.476,237.206,249.367,341.938
						c0,0,125.943,48.756,264.03-42.731C2853.734,2561.858,2857.882,2274.279,2732.449,2051.237z"/>
					
						<linearGradient id="SVGID_00000146471201878364697880000011302266477139911824_" gradientUnits="userSpaceOnUse" x1="356.6548" y1="2031.8102" x2="517.0606" y2="2031.8102" gradientTransform="matrix(-0.9985 -0.0552 -0.0552 0.9985 3007.4849 58.8591)">
						<stop  offset="0" style="stop-color:#FEBBBA"/>
						<stop  offset="1" style="stop-color:#FF928E"/>
					</linearGradient>
					<path style="fill:url(#SVGID_00000146471201878364697880000011302266477139911824_);" d="M2471.71,1989.083l61.19,83.128
						c6.075,8.253,6.903,19.314,1.891,28.253c-10.128,18.066-33.22,43.906-80.916,37.521c-14.188-1.899-26.332-11.195-31.845-24.405
						l-40.62-97.33L2471.71,1989.083z"/>
					
						<linearGradient id="SVGID_00000123407526719635941390000017324095192982466717_" gradientUnits="userSpaceOnUse" x1="3165.9409" y1="1942.1075" x2="2944.0867" y2="2167.3232">
						<stop  offset="0" style="stop-color:#FF928E"/>
						<stop  offset="1" style="stop-color:#FE7062"/>
					</linearGradient>
					<path style="fill:url(#SVGID_00000123407526719635941390000017324095192982466717_);" d="M2816.779,2397.442
						c18.946-62.132-129.95-211.208-129.95-211.208l45.619-134.997c0,0,325.824,243.876,229.616,420.202
						c-13.792,25.277-31.21,42.555-50.911,53.664C2887.967,2450.279,2846.417,2414.256,2816.779,2397.442z"/>
					
						<linearGradient id="SVGID_00000093891917147961322020000014889485537367425165_" gradientUnits="userSpaceOnUse" x1="3018.2424" y1="1791.6666" x2="2571.1716" y2="2611.8567">
						<stop  offset="0" style="stop-color:#E1473D"/>
						<stop  offset="1" style="stop-color:#E9605A"/>
					</linearGradient>
					<path style="fill:url(#SVGID_00000093891917147961322020000014889485537367425165_);" d="M2817.396,2388.278
						c1.663,0.092,3.238-0.952,3.746-2.621c19.373-63.524-124.732-208.752-130.874-214.906c-1.443-1.443-3.787-1.451-5.244-0.005
						c-1.448,1.448-1.447,3.797-0.005,5.244c1.475,1.473,147.117,148.202,129.031,207.506c-0.596,1.958,0.507,4.03,2.466,4.627
						C2816.806,2388.211,2817.103,2388.261,2817.396,2388.278z"/>
					
						<linearGradient id="SVGID_00000152965416958902466850000017239458708742431408_" gradientUnits="userSpaceOnUse" x1="2869.6829" y1="2440.1826" x2="2408.0461" y2="2487.2424">
						<stop  offset="0" style="stop-color:#FEBBBA"/>
						<stop  offset="1" style="stop-color:#FF928E"/>
					</linearGradient>
					<path style="fill:url(#SVGID_00000152965416958902466850000017239458708742431408_);" d="M2579.807,2378.912
						c0,0,181.748,82.372,230.08,30.637c3.278-3.509,5.513-7.586,6.892-12.106c29.638,16.814,71.188,52.837,94.375,127.66
						c-101.133,57.023-262.736-49.346-306.301-80.48c-7.167-5.121-15.985-7.266-24.696-5.955c-17.613,2.648-47.988,6.296-64.073,2.9
						c-23.533-4.967-62.249,76.871-99.291,48.921C2416.793,2490.489,2457.775,2346.783,2579.807,2378.912z"/>
					<g>
						<g>
							
								<linearGradient id="SVGID_00000064322259345022659090000017818675317198856857_" gradientUnits="userSpaceOnUse" x1="-2809.6433" y1="2041.8562" x2="-2864.4739" y2="1861.0121" gradientTransform="matrix(-1 0 0 1 -451.021 0)">
								<stop  offset="0" style="stop-color:#FEBBBA"/>
								<stop  offset="1" style="stop-color:#FF928E"/>
							</linearGradient>
							<path style="fill:url(#SVGID_00000064322259345022659090000017818675317198856857_);" d="M2291.327,1943.843
								c0,0,13.123,92.278,48.571,120.656c35.448,28.378,104.511,7.01,127.838-62.556l-46.479-118.946L2291.327,1943.843z"/>
							
								<linearGradient id="SVGID_00000079445148281316263590000012020746349618975892_" gradientUnits="userSpaceOnUse" x1="-3186.6143" y1="2118.3503" x2="-2886.7168" y2="1933.5295" gradientTransform="matrix(-1 0 0 1 -451.021 0)">
								<stop  offset="0" style="stop-color:#09005D"/>
								<stop  offset="1" style="stop-color:#1A0F91"/>
							</linearGradient>
							<path style="fill:url(#SVGID_00000079445148281316263590000012020746349618975892_);" d="M2426.493,1959.968
								c-2.696,0.869-5.519-0.859-5.94-3.66c-1.279-8.519-4.474-25.377-10.94-36.859c0,0,3.383-12.107-30.597,6.182
								c-33.979,18.289-85.016,45.155-115.063,29.157c-29.296-15.598-58.97-94.096,18.453-79.553
								c2.946,0.553,5.655-1.794,5.434-4.783c-0.951-12.901,0.329-42.583,30.386-52.109c28.127-8.915,13.026,5.535,19.37,13.199
								c1.867,2.255-2.356-7.677,37.612-1.867c13.712,1.993,31.308-34.413,64.993-19.569c27.746,12.227,32.061,29.318,31.603,39.967
								c-0.148,3.451,3.354,5.789,6.49,4.344c8.497-3.914,22.166-5.947,35.258,10.458c18.101,22.679-7.766,42.346-15.525,47.503
								c-1.271,0.844-2.062,2.245-2.071,3.771c-0.073,11.794-1.91,63.241-27.695,92.262c-2.233,2.513-6.359,1.776-7.66-1.324
								l-19.854-47.303c-0.922-2.197-3.372-3.323-5.64-2.592L2426.493,1959.968z"/>
							
								<linearGradient id="SVGID_00000166647598862591013500000013445475763108455595_" gradientUnits="userSpaceOnUse" x1="-2866.4363" y1="2059.0759" x2="-2921.2668" y2="1878.2311" gradientTransform="matrix(-1 0 0 1 -451.021 0)">
								<stop  offset="0" style="stop-color:#FEBBBA"/>
								<stop  offset="1" style="stop-color:#FF928E"/>
							</linearGradient>
							<path style="fill:url(#SVGID_00000166647598862591013500000013445475763108455595_);" d="M2426.074,1969.572
								c0,0,12.123-49.38,30.54-33.347c18.416,16.032-4.801,51.319-25.898,58.045L2426.074,1969.572z"/>
						</g>
					</g>
				</g>
				<g>
					<g>
						<g>
							
								<linearGradient id="SVGID_00000173855961584517307830000003634782728079682993_" gradientUnits="userSpaceOnUse" x1="409.7019" y1="1996.288" x2="501.5598" y2="1934.0116" gradientTransform="matrix(-0.9926 -0.1214 -0.1214 0.9926 3114.354 138.106)">
								<stop  offset="0" style="stop-color:#4F52FF"/>
								<stop  offset="1" style="stop-color:#4042E2"/>
							</linearGradient>
							<path style="fill:url(#SVGID_00000173855961584517307830000003634782728079682993_);" d="M2365.25,2055.454
								c61.243,1.663,93.663-63.146,93.984-63.802l-4.196-2.052c-0.308,0.627-31.447,62.766-89.662,61.186L2365.25,2055.454z"/>
						</g>
						
							<linearGradient id="SVGID_00000018925307180424978340000014004051537682293144_" gradientUnits="userSpaceOnUse" x1="3244.7168" y1="2834.5708" x2="3279.7234" y2="2834.5708" gradientTransform="matrix(0.8747 -0.1541 0.1951 1.1071 -1035.3665 -580.1812)">
							<stop  offset="0" style="stop-color:#4F52FF"/>
							<stop  offset="1" style="stop-color:#4042E2"/>
						</linearGradient>
						<path style="fill:url(#SVGID_00000018925307180424978340000014004051537682293144_);" d="M2385.797,2060.086l-26.817,4.726
							c-1.046,0.184-2.052-0.521-2.237-1.566l-1.862-10.568c-0.184-1.046,0.521-2.052,1.566-2.237l26.817-4.726
							c1.046-0.184,2.052,0.521,2.237,1.566l1.862,10.568C2387.548,2058.896,2386.843,2059.902,2385.797,2060.086z"/>
					</g>
					<g>
						
							<linearGradient id="SVGID_00000063604787565544615550000006612169594394557610_" gradientUnits="userSpaceOnUse" x1="2426.1606" y1="1857.7423" x2="2293.3843" y2="2249.3494">
							<stop  offset="0" style="stop-color:#4F52FF"/>
							<stop  offset="1" style="stop-color:#4042E2"/>
						</linearGradient>
						<path style="fill:url(#SVGID_00000063604787565544615550000006612169594394557610_);" d="M2456.47,1930.241
							c0,0-29.986-94.71-91.22-101.791c0,0,19.902-10.24,38.356-2.228c18.454,8.012,66.717,53.728,68.181,105.892
							C2459.734,1936.615,2456.47,1930.241,2456.47,1930.241z"/>
						
							<linearGradient id="SVGID_00000170990753266503338640000009482686902733275031_" gradientUnits="userSpaceOnUse" x1="2823.54" y1="1780.2805" x2="2675.6367" y2="1857.5938">
							<stop  offset="0" style="stop-color:#4F52FF"/>
							<stop  offset="1" style="stop-color:#4042E2"/>
						</linearGradient>
						<path style="fill:url(#SVGID_00000170990753266503338640000009482686902733275031_);" d="M2462.6,1916.004
							c33.874,5.188,31.799,47.808,31.799,47.808c3.904,30.669-4.344,46.363-15.507,54.192c-7.625,5.348-17.506,6.286-26.013,2.496
							c-8.508-3.79-14.406-11.763-15.539-21.008c-1.024-8.348-2.118-16.278-2.877-19.076
							C2432.626,1973.636,2428.726,1910.816,2462.6,1916.004z"/>
					</g>
					
						<linearGradient id="SVGID_00000032631833178625265790000001365189834584073361_" gradientUnits="userSpaceOnUse" x1="2681.918" y1="1849.4792" x2="3128.9888" y2="1604.0941">
						<stop  offset="0" style="stop-color:#4F52FF"/>
						<stop  offset="1" style="stop-color:#4042E2"/>
					</linearGradient>
					<path style="fill:url(#SVGID_00000032631833178625265790000001365189834584073361_);" d="M2460.037,1926.88
						c6.905-1.547,13.951,1.822,17.066,8.176c22.292,45.475-0.865,76.875-12.918,78.089c-12.705,1.279-15.406-60.009-13.46-75.848
						C2451.54,1930.659,2455.597,1927.875,2460.037,1926.88z"/>
				</g>
			</g>
			<path style="fill:#91B3FA;" d="M1670.968,2512.541c0,10.688,9.396,19.645,20.985,19.645H3153.04
				c11.59,0,20.985-8.957,20.985-19.645l0,0c0-10.688-9.395-19.645-20.985-19.645H1691.953
				C1680.364,2492.896,1670.968,2501.853,1670.968,2512.541L1670.968,2512.541z"/>
			<g>
				<path style="fill:#7D97F4;" d="M1693.174,2532.186c39.07,212.166,78.165,422.138,117.236,633.387
					c2.31,12.321,13.399,22.755,24.258,22.755h1187.913c10.859,0,22.821-10.435,25.131-22.755
					c39.07-211.249,78.166-421.221,117.236-633.387H1693.174z"/>
				<path style="fill:#91B3FA;" d="M2642.791,2532.186c15.608,216.095,31.189,440.047,46.797,656.142h332.993
					c10.859,0,22.821-10.435,25.131-22.755c39.07-211.249,78.166-421.221,117.236-633.387H2642.791z"/>
			</g>
			<g>
				<path style="fill:#7D97F4;" d="M2728.914,2512.541c0,10.688,2.888,19.645,6.451,19.645h449.143
					c3.563,0,6.451-8.957,6.451-19.645l0,0c0-10.688-2.888-19.645-6.451-19.645h-449.143
					C2731.802,2492.896,2728.914,2501.853,2728.914,2512.541L2728.914,2512.541z"/>
			</g>
			<path style="fill:#7D97F4;" d="M1956.335,2473.251h406.824c8.844,0,12.872,10.774,12.872,19.619v3.955h-436.118v-3.955
				C1939.913,2484.025,1947.491,2473.251,1956.335,2473.251z"/>
			<g>
				<g>
					
						<linearGradient id="SVGID_00000037652136727814487740000008831918716554968980_" gradientUnits="userSpaceOnUse" x1="2115.9878" y1="2051.5305" x2="2039.7957" y2="2492.9983">
						<stop  offset="0" style="stop-color:#4F52FF"/>
						<stop  offset="0.5767" style="stop-color:#4E51FD"/>
						<stop  offset="0.7844" style="stop-color:#4B4DF6"/>
						<stop  offset="0.932" style="stop-color:#4447EB"/>
						<stop  offset="1" style="stop-color:#4042E2"/>
					</linearGradient>
					<path style="fill:url(#SVGID_00000037652136727814487740000008831918716554968980_);" d="M1840.174,2062.825l52.166,357.37
						c1.703,11.672,12.668,21.138,24.525,21.138l390.554-0.011c12.476,0,20.775-9.697,18.538-21.694l-68.423-366.979
						c-2.082-11.164-13.446-19.968-25.39-19.662l-374.285,9.601C1846.486,2042.881,1838.585,2051.942,1840.174,2062.825z"/>
					
						<linearGradient id="SVGID_00000166671738692125677020000010755255873137688744_" gradientUnits="userSpaceOnUse" x1="-686.1343" y1="2569.9663" x2="-693.5234" y2="2082.313" gradientTransform="matrix(-1 0 0 1 1583.2321 0)">
						<stop  offset="0" style="stop-color:#4F52FF"/>
						<stop  offset="1" style="stop-color:#4042E2"/>
					</linearGradient>
					<path style="fill:url(#SVGID_00000166671738692125677020000010755255873137688744_);" d="M2222.738,2039.708l72.095,393.288
						c0.898,4.899,6.669,8.902,11.738,8.902c12.475,0,21.706-9.821,19.457-21.883l-68.474-367.255
						c-2.093-11.224-13.466-20.078-25.411-19.772l-6.569,0.168C2223.483,2034.667,2222.255,2037.074,2222.738,2039.708z"/>
					<g>
						<g>
							<path style="fill:#91B3FA;" d="M1903.788,2296.664c1.451-0.053,2.412-1.318,2.146-2.826l-37.314-211.736
								c-1.693-9.609,5.907-15.782,14.24-16.207l39.67-2.024c1.427-0.073,2.369-1.306,2.106-2.754
								c-0.264-1.447-1.633-2.562-3.059-2.489l-39.647,2.036c-12.377,0.636-20.472,10.155-18.444,21.694l37.196,211.67
								C1900.946,2295.536,1902.337,2296.716,1903.788,2296.664z"/>
						</g>
						<g>
							<path style="fill:#91B3FA;" d="M2193.571,2409.933l54.955-0.11c11.264-0.023,17.951-10.075,15.544-23.355l-14.799-81.657
								c-0.281-1.551-1.74-2.798-3.258-2.785c-1.517,0.013-2.521,1.281-2.24,2.832l14.751,81.629
								c1.811,10.017-2.931,17.596-11.024,17.616l-54.922,0.13c-1.52,0.003-2.53,1.282-2.257,2.855
								C2190.594,2408.662,2192.05,2409.937,2193.571,2409.933z"/>
						</g>
					</g>
				</g>
				<g>
					
						<linearGradient id="SVGID_00000105394294750553462230000008429203969423783606_" gradientUnits="userSpaceOnUse" x1="-385.4057" y1="2487.0459" x2="-746.1984" y2="2491.106" gradientTransform="matrix(-1 0 0 1 1583.2321 0)">
						<stop  offset="0" style="stop-color:#4F52FF"/>
						<stop  offset="1" style="stop-color:#4042E2"/>
					</linearGradient>
					<path style="fill:url(#SVGID_00000105394294750553462230000008429203969423783606_);" d="M1947.771,2498.117v4.716
						l97.193-2.079h137.407c3.311,0,5.996-1.444,5.996-4.756l0,0c0-12.893-9.077-22.747-21.997-22.747h-193.967
						c-1.663,0-4.97,0.63-6.442,0.958C1955.767,2476.552,1947.771,2486.887,1947.771,2498.117z"/>
					
						<linearGradient id="SVGID_00000168814250846614334440000009923810119108406175_" gradientUnits="userSpaceOnUse" x1="2075.0022" y1="2410.718" x2="1943.9064" y2="2783.8369">
						<stop  offset="0" style="stop-color:#4F52FF"/>
						<stop  offset="1" style="stop-color:#4042E2"/>
					</linearGradient>
					<path style="fill:url(#SVGID_00000168814250846614334440000009923810119108406175_);" d="M1924.648,2497.763
						c0.027-12.893,10.521-23.251,23.442-23.197l19.599,0.082l77.385,0.354l96.984,0.572c12.893,0.055,23.306,9.36,23.278,22.253
						c-0.015,2.548-2.085,2.927-4.634,2.927h-231.426c-1.233,0-2.414,1.189-3.284,0.316c-0.869-0.874-1.355-1.217-1.35-2.45
						L1924.648,2497.763z"/>
					
						<linearGradient id="SVGID_00000106137995243787617600000015822700185665186185_" gradientUnits="userSpaceOnUse" x1="2670.8047" y1="2191.3215" x2="2469.1199" y2="2241.7424">
						<stop  offset="0" style="stop-color:#4F52FF"/>
						<stop  offset="1" style="stop-color:#4042E2"/>
					</linearGradient>
					<path style="fill:url(#SVGID_00000106137995243787617600000015822700185665186185_);" d="M2109.66,2213.938
						c8.845,0,14.915,8.412,14.915,17.257v242.057h-125.728v-259.313H2109.66z"/>
					
						<linearGradient id="SVGID_00000083784501137780789220000007647817726039911096_" gradientUnits="userSpaceOnUse" x1="2105.4861" y1="2142.1738" x2="2004.6433" y2="2485.04">
						<stop  offset="0" style="stop-color:#4F52FF"/>
						<stop  offset="1" style="stop-color:#4042E2"/>
					</linearGradient>
					<path style="fill:url(#SVGID_00000083784501137780789220000007647817726039911096_);" d="M1999.948,2213.938h90.632
						c8.844,0,14.35,8.412,14.35,17.257v242.057h-121.799v-242.057C1983.132,2222.35,1991.103,2213.938,1999.948,2213.938z"/>
				</g>
			</g>
			
				<linearGradient id="SVGID_00000119117632510989513550000005539531245343531415_" gradientUnits="userSpaceOnUse" x1="2487.3828" y1="2325.5938" x2="2488.5034" y2="2540.7256">
				<stop  offset="0" style="stop-color:#4F52FF"/>
				<stop  offset="1" style="stop-color:#4042E2"/>
			</linearGradient>
			<path style="fill:url(#SVGID_00000119117632510989513550000005539531245343531415_);" d="M2540.67,2496.825h-105.111
				c0,0,23.866-51.286,67.535-48.747C2546.763,2450.617,2540.67,2496.825,2540.67,2496.825z"/>
		</g>
	</g>
</g>
</svg>
